<svg width="1440" height="956" viewBox="0 0 1440 956" fill="none" xmlns="http://www.w3.org/2000/svg">
<g clip-path="url(#clip0_176_1254)">
<path fill-rule="evenodd" clip-rule="evenodd" d="M1007 954.153H1388.47C1388.47 954.153 1388.47 954.153 1388.47 954.152C1388.47 853.117 1303.08 771.211 1197.74 771.211C1092.4 771.211 1007 853.117 1007 954.152C1007 954.153 1007 954.153 1007 954.153Z" fill="#FF2144"/>
<path fill-rule="evenodd" clip-rule="evenodd" d="M1197.74 741.94C1303.08 741.94 1388.47 660.035 1388.47 559H1007C1007 660.035 1092.4 741.94 1197.74 741.94Z" fill="#0032FF"/>
<path fill-rule="evenodd" clip-rule="evenodd" d="M1007 324.153H1388.47C1388.47 324.153 1388.47 324.153 1388.47 324.152C1388.47 223.117 1303.08 141.211 1197.74 141.211C1092.4 141.211 1007 223.117 1007 324.152C1007 324.153 1007 324.153 1007 324.153Z" fill="#FF2144"/>
<path fill-rule="evenodd" clip-rule="evenodd" d="M1197.74 111.94C1303.08 111.94 1388.47 30.035 1388.47 -71L1007 -71C1007 30.035 1092.4 111.94 1197.74 111.94Z" fill="#0032FF"/>
<rect x="1007" y="523.647" width="164.647" height="381.471" transform="rotate(-90 1007 523.647)" fill="#E10037"/>
</g>
<defs>
<clipPath id="clip0_176_1254">
<rect width="1440" height="956" fill="white"/>
</clipPath>
</defs>
</svg>
