<svg width="1620" height="1080" viewBox="0 0 1620 1080" fill="none" xmlns="http://www.w3.org/2000/svg">
<g clip-path="url(#clip0_452_2)">
<rect width="1620" height="1080" fill="#71001B"/>
<path d="M-2 925.226C634.211 764.775 989.081 757.119 1618 925.226V1143.23H-2V925.226Z" fill="#A90029"/>
<path d="M1397 0H1620.23V223.269C1619.14 223.269 1618.05 223.269 1617 223.226C1495.24 221.502 1397.06 122.282 1397.01 0.0427592V0H1397Z" fill="#5A0A19"/>
<path d="M152.727 646.53C104.094 633.788 68.2599 589.558 68.2599 536.948C68.2599 484.338 104.108 440.109 152.727 427.366C171.043 459.722 181.477 497.124 181.477 536.948C181.477 576.773 171.043 614.16 152.727 646.53Z" fill="#FFD700"/>
<path d="M-41.7355 760.174C-42.8188 760.174 -43.9163 760.174 -44.9996 760.132V317H-3.49297C63.6132 328.574 120.457 370.109 152.741 427.38C104.108 440.123 68.2741 484.352 68.2741 536.962C68.2741 589.572 104.122 633.802 152.741 646.544C114.499 714.363 41.7339 760.174 -41.7355 760.174Z" fill="#870F26"/>
<path d="M152.727 646.53C104.094 633.788 68.2599 589.558 68.2599 536.948C68.2599 484.338 104.108 440.109 152.727 427.366C171.043 459.722 181.477 497.124 181.477 536.948C181.477 576.773 171.043 614.16 152.727 646.53Z" fill="#FFD700"/>
<path d="M181.491 650.222C171.556 650.222 161.92 648.925 152.741 646.53C171.057 614.174 181.491 576.773 181.491 536.948C181.491 497.123 171.057 459.736 152.741 427.366C161.92 424.971 171.556 423.674 181.491 423.674C244.036 423.674 294.75 474.403 294.75 536.934C294.75 599.464 244.021 650.193 181.491 650.193V650.222Z" fill="#5A0A19"/>
<path d="M152.727 646.53C104.094 633.788 68.2599 589.558 68.2599 536.948C68.2599 484.338 104.108 440.109 152.727 427.366C171.043 459.722 181.477 497.124 181.477 536.948C181.477 576.773 171.043 614.16 152.727 646.53Z" fill="white"/>
</g>
<defs>
<clipPath id="clip0_452_2">
<rect width="1620" height="1080" fill="white"/>
</clipPath>
</defs>
</svg>
