<svg width="1620" height="1080" viewBox="0 0 1620 1080" fill="none" xmlns="http://www.w3.org/2000/svg">
<g clip-path="url(#clip0_452_2)">
<rect width="1620" height="1080" fill="#5F0048"/>
<path d="M-2 925.226C634.211 764.775 989.081 757.119 1618 925.226V1143.23H-2V925.226Z" fill="#8E006D"/>
<path d="M1397 0H1620.23V223.269C1619.14 223.269 1618.05 223.269 1617 223.226C1495.24 221.502 1397.06 122.282 1397.01 0.0427592V0H1397Z" fill="#73003F"/>
<path d="M197.727 711.53C149.094 698.787 113.26 654.558 113.26 601.948C113.26 549.338 149.108 505.109 197.727 492.366C216.043 524.722 226.477 562.123 226.477 601.948C226.477 641.772 216.043 679.16 197.727 711.53Z" fill="#FFD700"/>
<path d="M3.26403 825.174C2.18075 825.174 1.08322 825.174 -5.40901e-05 825.131V382H41.5065C108.613 393.574 165.456 435.109 197.741 492.38C149.107 505.123 113.274 549.352 113.274 601.962C113.274 654.572 149.122 698.801 197.741 711.544C159.498 779.363 86.7334 825.174 3.26403 825.174Z" fill="#8E006D"/>
<path d="M0.26403 378C-0.819247 378 -1.91678 378 -3.00005 378.043V821.174H38.5065C105.613 809.6 162.456 768.065 194.741 710.794C146.107 698.051 110.274 653.822 110.274 601.212C110.274 548.602 146.122 504.373 194.741 491.63C156.498 423.811 83.7334 378 0.26403 378Z" fill="#8E006D"/>
<path d="M197.727 711.53C149.094 698.787 113.26 654.558 113.26 601.948C113.26 549.338 149.108 505.109 197.727 492.366C216.043 524.722 226.477 562.123 226.477 601.948C226.477 641.772 216.043 679.16 197.727 711.53Z" fill="#FFD700"/>
<path d="M226.491 715.222C216.556 715.222 206.92 713.925 197.741 711.53C216.057 679.174 226.491 641.773 226.491 601.948C226.491 562.123 216.057 524.736 197.741 492.366C206.92 489.971 216.556 488.674 226.491 488.674C289.036 488.674 339.75 539.403 339.75 601.934C339.75 664.464 289.021 715.193 226.491 715.193V715.222Z" fill="#73003F"/>
<path d="M197.727 711.53C149.094 698.787 113.26 654.558 113.26 601.948C113.26 549.338 149.108 505.109 197.727 492.366C216.043 524.722 226.477 562.123 226.477 601.948C226.477 641.772 216.043 679.16 197.727 711.53Z" fill="white"/>
</g>
<defs>
<clipPath id="clip0_452_2">
<rect width="1620" height="1080" fill="white"/>
</clipPath>
</defs>
</svg>
