<svg width="300" height="187" viewBox="0 0 300 187" fill="none" xmlns="http://www.w3.org/2000/svg">
<g clip-path="url(#clip0_137_1221)">
<rect width="300" height="186.082" fill="#BFA100"/>
<path d="M183.637 81.1939C183.637 78.9516 181.747 77.1317 179.414 77.1317H172.206C174.072 75.3606 175.265 73.041 175.265 70.1833C175.265 66.6654 173.164 62.8408 167.267 62.8408C159.507 62.8408 153.025 70.7885 149.978 75.2428C146.929 70.7885 140.25 62.8408 132.491 62.8408C126.593 62.8408 124.492 66.6634 124.492 70.1812C124.492 73.039 125.719 75.3606 127.621 77.1297H120.29C117.957 77.1297 116.067 78.9495 116.067 81.1919V93.3501H120.328V119.789C120.328 122.033 122.218 123.851 124.551 123.851H175.206C177.539 123.851 179.429 122.033 179.429 119.789V93.348H183.635V81.1898L183.637 81.1939ZM167.267 66.9071C169.877 66.9071 171.042 67.9633 171.042 70.1873C171.042 74.6984 165.808 77.1337 160.884 77.1337H153.734C156.735 72.8461 162.016 66.9071 167.267 66.9071ZM132.493 66.9071C137.744 66.9071 143.225 72.8461 146.226 77.1317H139.076C134.152 77.1317 128.719 74.6355 128.719 70.1223C128.719 67.8983 129.881 66.9071 132.493 66.9071ZM179.414 89.2919H151.965V81.1959H179.414V89.2919ZM120.292 81.1939H147.742V89.2899H120.292V81.1939ZM124.553 93.3541H147.742V119.795H124.553V93.3541ZM175.208 119.795H151.965V93.3562H175.208V119.795Z" fill="#7F6C00" fill-opacity="0.5"/>
<mask id="mask0_137_1221" style="mask-type:luminance" maskUnits="userSpaceOnUse" x="-18" y="132" width="318" height="120">
<path d="M300 132.393H-17.125V251.973H300V132.393Z" fill="white"/>
</mask>
<g mask="url(#mask0_137_1221)">
<path d="M298.489 133.107L297.239 131.099C297.664 130.849 301.298 128.519 298.857 123.449L301.064 122.46C303.804 128.146 300.582 131.911 298.489 133.107Z" fill="#7F6C00" fill-opacity="0.5"/>
<path d="M300.011 144.14L292.873 150.117L294.472 151.884L301.61 145.907L300.011 144.14Z" fill="#7F6C00" fill-opacity="0.5"/>
<path d="M290.383 136.334C290.383 137.859 289.096 139.098 287.516 139.098C285.937 139.098 284.649 137.859 284.649 136.334C284.649 134.809 285.931 133.576 287.516 133.576C289.102 133.576 290.383 134.815 290.383 136.334Z" fill="#7F6C00" fill-opacity="0.5"/>
<path d="M260.13 141.251C260.13 142.532 259.045 143.576 257.713 143.576C256.381 143.576 255.297 142.532 255.297 141.251C255.297 139.97 256.381 138.927 257.713 138.927C259.045 138.927 260.13 139.97 260.13 141.251Z" fill="#7F6C00" fill-opacity="0.5"/>
<path d="M283.542 163.857L282.295 167.076L295.299 171.738L296.546 168.519L283.542 163.857Z" fill="#7F6C00" fill-opacity="0.5"/>
<path d="M284.707 187.796C284.707 189.077 283.622 190.121 282.291 190.121C280.959 190.121 279.874 189.077 279.874 187.796C279.874 186.515 280.959 185.472 282.291 185.472C283.622 185.472 284.707 186.515 284.707 187.796Z" fill="#7F6C00" fill-opacity="0.5"/>
<path d="M273.405 157.315L272.155 155.308C272.58 155.058 276.214 152.727 273.773 147.657L275.98 146.669C278.72 152.355 275.498 156.119 273.405 157.315Z" fill="#7F6C00" fill-opacity="0.5"/>
<path d="M274.917 168.366L267.78 174.344L269.38 176.111L276.516 170.133L274.917 168.366Z" fill="#7F6C00" fill-opacity="0.5"/>
<path d="M265.292 160.543C265.292 162.068 264.011 163.301 262.425 163.301C260.84 163.301 259.559 162.062 259.559 160.543C259.559 159.024 260.84 157.785 262.425 157.785C264.011 157.785 265.292 159.018 265.292 160.543Z" fill="#7F6C00" fill-opacity="0.5"/>
<path d="M243.443 134.589L242.193 132.582C242.618 132.332 246.253 130.001 243.811 124.931L246.018 123.943C248.758 129.629 245.536 133.393 243.443 134.589Z" fill="#7F6C00" fill-opacity="0.5"/>
<path d="M244.962 145.635L237.827 151.615L239.427 153.381L246.562 147.402L244.962 145.635Z" fill="#7F6C00" fill-opacity="0.5"/>
<path d="M252.862 184.251L256.743 185.661C256.451 186.423 254.156 193.251 263.003 197.533L261.139 201.096C251.213 196.289 251.39 187.973 252.868 184.245L252.862 184.251Z" fill="#7F6C00" fill-opacity="0.5"/>
<path d="M228.773 170.079C228.773 171.604 227.485 172.836 225.906 172.836C224.327 172.836 223.039 171.598 223.039 170.079C223.039 168.56 224.32 167.321 225.906 167.321C227.491 167.321 228.773 168.56 228.773 170.079Z" fill="#7F6C00" fill-opacity="0.5"/>
<path d="M240.848 180.579L239.599 178.571C240.024 178.321 243.658 175.991 241.216 170.921L243.423 169.932C246.169 175.619 242.941 179.383 240.848 180.579Z" fill="#7F6C00" fill-opacity="0.5"/>
<path d="M62.9568 127.22L55.8193 133.197L57.4185 134.964L64.5559 128.987L62.9568 127.22Z" fill="#7F6C00" fill-opacity="0.5"/>
<path d="M46.4779 146.9L45.2314 150.119L58.2359 154.779L59.4824 151.56L46.4779 146.9Z" fill="#7F6C00" fill-opacity="0.5"/>
<path d="M47.6494 170.866C47.6494 172.147 46.5648 173.19 45.2329 173.19C43.901 173.19 42.8164 172.147 42.8164 170.866C42.8164 169.585 43.8946 168.541 45.2329 168.541C46.5712 168.541 47.6494 169.578 47.6494 170.866Z" fill="#7F6C00" fill-opacity="0.5"/>
<path d="M36.3471 140.385L35.0977 138.378C35.5226 138.128 39.1569 135.797 36.715 130.727L38.9222 129.739C41.6621 135.425 38.4402 139.189 36.3471 140.385Z" fill="#7F6C00" fill-opacity="0.5"/>
<path d="M37.867 151.436L30.7295 157.413L32.3286 159.18L39.4661 153.203L37.867 151.436Z" fill="#7F6C00" fill-opacity="0.5"/>
<path d="M28.2414 143.612C28.2414 145.138 26.9602 146.376 25.3746 146.376C23.789 146.376 22.5078 145.138 22.5078 143.612C22.5078 142.087 23.789 140.855 25.3746 140.855C26.9602 140.855 28.2414 142.093 28.2414 143.612Z" fill="#7F6C00" fill-opacity="0.5"/>
<path d="M101.504 153.624C101.504 155.149 100.217 156.388 98.6373 156.388C97.058 156.388 95.7705 155.149 95.7705 153.624C95.7705 152.099 97.0517 150.866 98.6373 150.866C100.223 150.866 101.504 152.105 101.504 153.624Z" fill="#7F6C00" fill-opacity="0.5"/>
<path d="M92.3086 128.557L90.041 129.412L93.4938 137.887L95.7614 137.032L92.3086 128.557Z" fill="#7F6C00" fill-opacity="0.5"/>
<path d="M72.8164 136.813L71.5693 140.032L84.573 144.694L85.82 141.475L72.8164 136.813Z" fill="#7F6C00" fill-opacity="0.5"/>
<path d="M71.2568 158.548C71.2568 159.829 70.1722 160.872 68.8403 160.872C67.5084 160.872 66.4238 159.829 66.4238 158.548C66.4238 157.266 67.5021 156.223 68.8403 156.223C70.1786 156.223 71.2568 157.266 71.2568 158.548Z" fill="#7F6C00" fill-opacity="0.5"/>
<path d="M94.6601 181.152L93.4131 184.371L106.417 189.032L107.664 185.814L94.6601 181.152Z" fill="#7F6C00" fill-opacity="0.5"/>
<path d="M84.5249 174.612L83.2754 172.605C83.7003 172.355 87.3346 170.024 84.8927 164.954L87.0999 163.966C89.8399 169.652 86.6179 173.416 84.5249 174.612Z" fill="#7F6C00" fill-opacity="0.5"/>
<path d="M86.0387 185.677L78.9023 191.655L80.5018 193.422L87.6382 187.444L86.0387 185.677Z" fill="#7F6C00" fill-opacity="0.5"/>
<path d="M76.4192 177.839C76.4192 179.364 75.138 180.603 73.5524 180.603C71.9667 180.603 70.6855 179.364 70.6855 177.839C70.6855 176.314 71.9667 175.082 73.5524 175.082C75.138 175.082 76.4192 176.32 76.4192 177.839Z" fill="#7F6C00" fill-opacity="0.5"/>
<path d="M7.89334 128.72L0.755859 134.697L2.35498 136.464L9.49247 130.487L7.89334 128.72Z" fill="#7F6C00" fill-opacity="0.5"/>
<path d="M15.8109 167.321L19.6925 168.73C19.4007 169.493 17.1047 176.32 25.9525 180.603L24.0878 184.166C14.1618 179.358 14.3394 171.043 15.8172 167.315L15.8109 167.321Z" fill="#7F6C00" fill-opacity="0.5"/>
<path d="M6.25311 182.003L3.98535 182.857L7.43664 191.333L9.7044 190.478L6.25311 182.003Z" fill="#7F6C00" fill-opacity="0.5"/>
<path d="M-0.499129 173.481L-7.6377 179.457L-6.03889 181.224L1.09968 175.248L-0.499129 173.481Z" fill="#7F6C00" fill-opacity="0.5"/>
<path d="M3.79146 163.642L2.54199 161.635C2.96694 161.385 6.60119 159.054 4.15933 153.984L6.36652 152.996C9.10648 158.682 5.88449 162.446 3.79146 163.642Z" fill="#7F6C00" fill-opacity="0.5"/>
<path d="M46.2738 183.519L50.1554 184.929C49.8636 185.691 47.5676 192.518 56.4154 196.801L54.5507 200.364C44.6247 195.557 44.8023 187.241 46.2801 183.513L46.2738 183.519Z" fill="#7F6C00" fill-opacity="0.5"/>
<path d="M156.246 158.2C156.246 159.725 154.965 160.964 153.379 160.964C151.794 160.964 150.513 159.725 150.513 158.2C150.513 156.675 151.794 155.442 153.379 155.442C154.965 155.442 156.246 156.675 156.246 158.2Z" fill="#7F6C00" fill-opacity="0.5"/>
<path d="M135.918 143.29L128.78 149.267L130.379 151.034L137.517 145.057L135.918 143.29Z" fill="#7F6C00" fill-opacity="0.5"/>
<path d="M143.815 181.903L147.696 183.312C147.405 184.075 145.109 190.902 153.956 195.185L152.092 198.748C142.166 193.94 142.343 185.624 143.821 181.896L143.815 181.903Z" fill="#7F6C00" fill-opacity="0.5"/>
<path d="M119.72 167.736C119.72 169.261 118.432 170.494 116.853 170.494C115.274 170.494 113.986 169.255 113.986 167.736C113.986 166.217 115.268 164.978 116.853 164.978C118.439 164.978 119.72 166.217 119.72 167.736Z" fill="#7F6C00" fill-opacity="0.5"/>
<path d="M131.795 178.23L130.546 176.223C130.971 175.972 134.605 173.642 132.163 168.572L134.37 167.583C137.11 173.27 133.888 177.034 131.795 178.23Z" fill="#7F6C00" fill-opacity="0.5"/>
<path d="M214.088 133.053L206.95 139.03L208.549 140.797L215.687 134.82L214.088 133.053Z" fill="#7F6C00" fill-opacity="0.5"/>
<path d="M108.544 128.732L112.692 128.708C112.705 129.519 113.111 136.682 122.967 137.627L122.555 141.599C111.5 140.544 108.551 132.722 108.538 128.732H108.544Z" fill="#7F6C00" fill-opacity="0.5"/>
<path d="M180.354 126.249L184.235 127.658C183.944 128.421 181.648 135.248 190.495 139.531L188.631 143.094C178.705 138.286 178.882 129.97 180.36 126.243L180.354 126.249Z" fill="#7F6C00" fill-opacity="0.5"/>
<path d="M170.795 140.917L168.527 141.772L171.982 150.247L174.249 149.392L170.795 140.917Z" fill="#7F6C00" fill-opacity="0.5"/>
<path d="M164.031 132.433L156.893 138.409L158.491 140.176L165.63 134.2L164.031 132.433Z" fill="#7F6C00" fill-opacity="0.5"/>
<path d="M200.485 169.761L204.366 171.171C204.075 171.933 201.779 178.761 210.626 183.043L208.762 186.606C198.836 181.799 199.013 173.483 200.491 169.755L200.485 169.761Z" fill="#7F6C00" fill-opacity="0.5"/>
<path d="M190.922 184.456L188.654 185.311L192.107 193.786L194.375 192.932L190.922 184.456Z" fill="#7F6C00" fill-opacity="0.5"/>
<path d="M167.297 171.187L160.158 177.163L161.757 178.93L168.896 172.955L167.297 171.187Z" fill="#7F6C00" fill-opacity="0.5"/>
<path d="M188.472 166.089L187.223 164.081C187.648 163.831 191.282 161.501 188.84 156.431L191.047 155.442C193.787 161.129 190.565 164.893 188.472 166.089Z" fill="#7F6C00" fill-opacity="0.5"/>
<path d="M30.9314 127.67C30.9314 130.312 28.7052 132.448 25.9652 132.448C23.2252 132.448 20.999 130.306 20.999 127.67C20.999 125.035 23.2252 122.893 25.9652 122.893C28.7052 122.893 30.9314 125.035 30.9314 127.67Z" fill="#7F6C00" fill-opacity="0.5"/>
<path d="M105.982 172.208C105.982 174.85 103.756 176.985 101.016 176.985C98.276 176.985 96.0498 174.844 96.0498 172.208C96.0498 169.572 98.276 167.431 101.016 167.431C103.756 167.431 105.982 169.572 105.982 172.208Z" fill="#7F6C00" fill-opacity="0.5"/>
<path d="M182.498 183.373C182.498 186.899 179.523 189.755 175.864 189.755C172.204 189.755 169.229 186.893 169.229 183.373C169.229 179.853 172.204 176.985 175.864 176.985C179.523 176.985 182.498 179.846 182.498 183.373Z" fill="#7F6C00" fill-opacity="0.5"/>
<path d="M220.952 158.304C220.952 161.83 217.977 164.685 214.318 164.685C210.658 164.685 207.684 161.824 207.684 158.304C207.684 154.784 210.658 151.916 214.318 151.916C217.977 151.916 220.952 154.777 220.952 158.304Z" fill="#7F6C00" fill-opacity="0.5"/>
<path d="M230.884 189.755C230.884 192.396 228.658 194.532 225.918 194.532C223.178 194.532 220.952 192.39 220.952 189.755C220.952 187.119 223.178 184.978 225.918 184.978C228.658 184.978 230.884 187.119 230.884 189.755Z" fill="#7F6C00" fill-opacity="0.5"/>
<path d="M303.975 187.198C303.975 189.84 301.749 191.975 299.009 191.975C296.269 191.975 294.043 189.834 294.043 187.198C294.043 184.563 296.269 182.421 299.009 182.421C301.749 182.421 303.975 184.563 303.975 187.198Z" fill="#7F6C00" fill-opacity="0.5"/>
</g>
<mask id="mask1_137_1221" style="mask-type:luminance" maskUnits="userSpaceOnUse" x="-202" y="-24" width="319" height="148">
<path d="M116.068 -23.1838H-201.057V123.851H116.068V-23.1838Z" fill="white"/>
</mask>
<g mask="url(#mask1_137_1221)">
<path d="M114.557 13.5262L113.308 11.519C113.733 11.2688 117.367 8.93821 114.925 3.86825L117.132 2.87988C119.872 8.56605 116.65 12.3304 114.557 13.5262Z" fill="#7F6C00" fill-opacity="0.5"/>
<path d="M116.079 24.5596L108.941 30.5364L110.541 32.3034L117.678 26.3267L116.079 24.5596Z" fill="#7F6C00" fill-opacity="0.5"/>
<path d="M106.451 16.7535C106.451 18.2788 105.164 19.5173 103.585 19.5173C102.005 19.5173 100.718 18.2788 100.718 16.7535C100.718 15.2283 101.999 13.9958 103.585 13.9958C105.17 13.9958 106.451 15.2344 106.451 16.7535Z" fill="#7F6C00" fill-opacity="0.5"/>
<path d="M97.2648 -8.34689L94.9971 -7.49243L98.4484 0.983307L100.716 0.128848L97.2648 -8.34689Z" fill="#7F6C00" fill-opacity="0.5"/>
<path d="M77.7474 -0.104329L76.501 3.1145L89.5054 7.77416L90.7519 4.55533L77.7474 -0.104329Z" fill="#7F6C00" fill-opacity="0.5"/>
<path d="M76.1982 21.6709C76.1982 22.9521 75.1136 23.9954 73.7817 23.9954C72.4498 23.9954 71.3652 22.9521 71.3652 21.6709C71.3652 20.3897 72.4498 19.3464 73.7817 19.3464C75.1136 19.3464 76.1982 20.3897 76.1982 21.6709Z" fill="#7F6C00" fill-opacity="0.5"/>
<path d="M99.6103 44.277L98.3633 47.4956L111.367 52.1575L112.614 48.9388L99.6103 44.277Z" fill="#7F6C00" fill-opacity="0.5"/>
<path d="M100.775 68.2159C100.775 69.4971 99.6908 70.5403 98.3589 70.5403C97.0269 70.5403 95.9424 69.4971 95.9424 68.2159C95.9424 66.9346 97.0269 65.8914 98.3589 65.8914C99.6908 65.8914 100.775 66.9346 100.775 68.2159Z" fill="#7F6C00" fill-opacity="0.5"/>
<path d="M89.4731 37.7349L88.2236 35.7277C88.6486 35.4776 92.2828 33.147 89.841 28.077L92.0482 27.0886C94.7881 32.7748 91.5661 36.5391 89.4731 37.7349Z" fill="#7F6C00" fill-opacity="0.5"/>
<path d="M90.985 48.7857L83.8486 54.7637L85.4481 56.5305L92.5845 50.5525L90.985 48.7857Z" fill="#7F6C00" fill-opacity="0.5"/>
<path d="M81.3606 40.9625C81.3606 42.4878 80.0794 43.7202 78.4938 43.7202C76.9081 43.7202 75.627 42.4817 75.627 40.9625C75.627 39.4434 76.9081 38.2048 78.4938 38.2048C80.0794 38.2048 81.3606 39.4373 81.3606 40.9625Z" fill="#7F6C00" fill-opacity="0.5"/>
<path d="M59.5112 15.0086L58.2617 13.0014C58.6867 12.7512 62.3209 10.4206 59.8791 5.35067L62.0863 4.3623C64.8262 10.0485 61.6042 13.8128 59.5112 15.0086Z" fill="#7F6C00" fill-opacity="0.5"/>
<path d="M61.0308 26.055L53.8955 32.0342L55.4953 33.8007L62.6306 27.8216L61.0308 26.055Z" fill="#7F6C00" fill-opacity="0.5"/>
<path d="M68.93 64.6711L72.8116 66.0805C72.5199 66.8431 70.2239 73.6702 79.0717 77.9531L77.207 81.5161C67.281 76.7085 67.4585 68.3928 68.9364 64.665L68.93 64.6711Z" fill="#7F6C00" fill-opacity="0.5"/>
<path d="M52.9982 76.8301L50.7305 77.6846L54.1818 86.1603L56.4495 85.3059L52.9982 76.8301Z" fill="#7F6C00" fill-opacity="0.5"/>
<path d="M29.4696 76.8948L22.3311 82.8704L23.9299 84.6377L31.0684 78.6622L29.4696 76.8948Z" fill="#7F6C00" fill-opacity="0.5"/>
<path d="M44.841 50.4984C44.841 52.0236 43.5535 53.2561 41.9742 53.2561C40.3949 53.2561 39.1074 52.0175 39.1074 50.4984C39.1074 48.9792 40.3886 47.7407 41.9742 47.7407C43.5598 47.7407 44.841 48.9792 44.841 50.4984Z" fill="#7F6C00" fill-opacity="0.5"/>
<path d="M56.9165 60.9984L55.667 58.9911C56.0919 58.741 59.7262 56.4104 57.2843 51.3404L59.4915 50.3521C62.2378 56.0382 59.0095 59.8026 56.9165 60.9984Z" fill="#7F6C00" fill-opacity="0.5"/>
<path d="M53.5803 7.79721C53.5803 9.32247 52.2928 10.5549 50.7135 10.5549C49.1342 10.5549 47.8467 9.31637 47.8467 7.79721C47.8467 6.27806 49.1342 5.03955 50.7135 5.03955C52.2928 5.03955 53.5803 6.27806 53.5803 7.79721Z" fill="#7F6C00" fill-opacity="0.5"/>
<path d="M28.6352 2.4283L27.3857 0.421055C27.8107 0.170913 31.445 -2.15969 29.0031 -7.22965L31.2103 -8.21802C33.9502 -2.53185 30.7282 1.2325 28.6352 2.4283Z" fill="#7F6C00" fill-opacity="0.5"/>
<path d="M30.156 13.4727L23.0186 19.4495L24.6177 21.2165L31.7552 15.2398L30.156 13.4727Z" fill="#7F6C00" fill-opacity="0.5"/>
<path d="M39.1514 99.3128C39.1514 100.594 38.0668 101.637 36.7349 101.637C35.4029 101.637 34.3184 100.594 34.3184 99.3128C34.3184 98.0316 35.3966 96.9883 36.7349 96.9883C38.0731 96.9883 39.1514 98.0316 39.1514 99.3128Z" fill="#7F6C00" fill-opacity="0.5"/>
<path d="M21.6398 100.109L19.3721 100.964L22.8234 109.44L25.0911 108.585L21.6398 100.109Z" fill="#7F6C00" fill-opacity="0.5"/>
<path d="M4.90517 107.702L-2.2334 113.677L-0.634581 115.445L6.50399 109.469L4.90517 107.702Z" fill="#7F6C00" fill-opacity="0.5"/>
<path d="M-3.57781 6.66844L0.303813 8.07778C0.0120584 8.84041 -2.28393 15.6675 6.56385 19.9504L4.69916 23.5134C-5.22685 18.7058 -5.04926 10.3901 -3.57146 6.66235L-3.57781 6.66844Z" fill="#7F6C00" fill-opacity="0.5"/>
<path d="M16.5531 50.1812L20.4347 51.5905C20.1429 52.3531 17.8469 59.1802 26.6947 63.4631L24.83 67.0261C14.904 62.2185 15.0816 53.9028 16.5594 50.175L16.5531 50.1812Z" fill="#7F6C00" fill-opacity="0.5"/>
<path d="M6.99026 64.8761L4.72266 65.731L8.17548 74.2061L10.4431 73.3513L6.99026 64.8761Z" fill="#7F6C00" fill-opacity="0.5"/>
<path d="M4.54049 46.5084L3.29102 44.5011C3.71596 44.251 7.3502 41.9204 4.90834 36.8504L7.11554 35.8621C9.8555 41.5482 6.63351 45.3126 4.54049 46.5084Z" fill="#7F6C00" fill-opacity="0.5"/>
<path d="M116.404 91.6682L120.285 93.0776C119.993 93.8402 117.698 100.667 126.545 104.95L124.681 108.513C114.755 103.706 114.932 95.3898 116.41 91.6621L116.404 91.6682Z" fill="#7F6C00" fill-opacity="0.5"/>
<path d="M106.828 110.644L104.561 111.498L108.012 119.974L110.28 119.119L106.828 110.644Z" fill="#7F6C00" fill-opacity="0.5"/>
<path d="M100.091 102.085L92.9521 108.061L94.551 109.828L101.69 103.852L100.091 102.085Z" fill="#7F6C00" fill-opacity="0.5"/>
<path d="M104.384 92.2662L103.135 90.2589C103.56 90.0088 107.194 87.6782 104.752 82.6082L106.959 81.6199C109.706 87.306 106.477 91.0704 104.384 92.2662Z" fill="#7F6C00" fill-opacity="0.5"/>
<path d="M76.6614 101.424L80.5431 102.833C80.2513 103.596 77.9553 110.423 86.8031 114.706L84.9384 118.269C75.0124 113.461 75.19 105.145 76.6678 101.418L76.6614 101.424Z" fill="#7F6C00" fill-opacity="0.5"/>
<path d="M65.4881 118.418L63.2207 119.273L66.6751 127.748L68.9425 126.893L65.4881 118.418Z" fill="#7F6C00" fill-opacity="0.5"/>
<path d="M58.7245 109.893L51.5859 115.868L53.1848 117.636L60.3233 111.66L58.7245 109.893Z" fill="#7F6C00" fill-opacity="0.5"/>
<path d="M63.018 100.082L61.7686 98.0744C62.1935 97.8242 65.8277 95.4936 63.3859 90.4237L65.5931 89.4353C68.3394 95.1215 65.111 98.8858 63.018 100.082Z" fill="#7F6C00" fill-opacity="0.5"/>
<path d="M37.0204 38.7235C37.0204 42.2499 34.0458 45.1052 30.3862 45.1052C26.7266 45.1052 23.752 42.2438 23.752 38.7235C23.752 35.2032 26.7266 32.3357 30.3862 32.3357C34.0458 32.3357 37.0204 35.1971 37.0204 38.7235Z" fill="#7F6C00" fill-opacity="0.5"/>
<path d="M46.9529 70.1743C46.9529 72.8161 44.7266 74.9514 41.9867 74.9514C39.2467 74.9514 37.0205 72.81 37.0205 70.1743C37.0205 67.5387 39.2467 65.3972 41.9867 65.3972C44.7266 65.3972 46.9529 67.5387 46.9529 70.1743Z" fill="#7F6C00" fill-opacity="0.5"/>
<path d="M120.044 67.6179C120.044 70.2597 117.817 72.395 115.078 72.395C112.338 72.395 110.111 70.2536 110.111 67.6179C110.111 64.9823 112.338 62.8408 115.078 62.8408C117.817 62.8408 120.044 64.9823 120.044 67.6179Z" fill="#7F6C00" fill-opacity="0.5"/>
</g>
<mask id="mask2_137_1221" style="mask-type:luminance" maskUnits="userSpaceOnUse" x="183" y="-11" width="319" height="148">
<path d="M501.057 -10.9819H183.933V136.053H501.057V-10.9819Z" fill="white"/>
</mask>
<g mask="url(#mask2_137_1221)">
<path d="M263.192 -3.12835L256.055 2.84839L257.654 4.61545L264.791 -1.36129L263.192 -3.12835Z" fill="#7F6C00" fill-opacity="0.5"/>
<path d="M234.659 -11.5676L238.54 -10.1583C238.248 -9.39565 235.952 -2.5686 244.8 1.71433L242.935 5.27734C233.009 0.469719 233.187 -7.846 234.665 -11.5737L234.659 -11.5676Z" fill="#7F6C00" fill-opacity="0.5"/>
<path d="M219.653 2.33403L217.386 3.18848L220.837 11.6642L223.105 10.8098L219.653 2.33403Z" fill="#7F6C00" fill-opacity="0.5"/>
<path d="M212.91 -6.1889L205.772 -0.212158L207.372 1.5549L214.509 -4.42184L212.91 -6.1889Z" fill="#7F6C00" fill-opacity="0.5"/>
<path d="M264.014 19.8419L256.877 25.8186L258.476 27.5857L265.614 21.6089L264.014 19.8419Z" fill="#7F6C00" fill-opacity="0.5"/>
<path d="M247.536 39.5216L246.289 42.7405L259.294 47.4001L260.54 44.1813L247.536 39.5216Z" fill="#7F6C00" fill-opacity="0.5"/>
<path d="M248.707 63.4873C248.707 64.7686 247.622 65.8118 246.291 65.8118C244.959 65.8118 243.874 64.7686 243.874 63.4873C243.874 62.2061 244.952 61.1628 246.291 61.1628C247.629 61.1628 248.707 62.2 248.707 63.4873Z" fill="#7F6C00" fill-opacity="0.5"/>
<path d="M237.405 33.0067L236.155 30.9994C236.58 30.7493 240.214 28.4187 237.773 23.3487L239.98 22.3604C242.72 28.0465 239.498 31.8109 237.405 33.0067Z" fill="#7F6C00" fill-opacity="0.5"/>
<path d="M238.925 44.0574L231.787 50.0342L233.386 51.8012L240.524 45.8245L238.925 44.0574Z" fill="#7F6C00" fill-opacity="0.5"/>
<path d="M229.299 36.234C229.299 37.7593 228.018 38.9978 226.432 38.9978C224.847 38.9978 223.565 37.7593 223.565 36.234C223.565 34.7087 224.847 33.4763 226.432 33.4763C228.018 33.4763 229.299 34.7148 229.299 36.234Z" fill="#7F6C00" fill-opacity="0.5"/>
<path d="M302.562 46.2457C302.562 47.771 301.274 49.0095 299.695 49.0095C298.116 49.0095 296.828 47.771 296.828 46.2457C296.828 44.7204 298.109 43.488 299.695 43.488C301.281 43.488 302.562 44.7265 302.562 46.2457Z" fill="#7F6C00" fill-opacity="0.5"/>
<path d="M293.366 21.1789L291.099 22.0337L294.551 30.5088L296.819 29.654L293.366 21.1789Z" fill="#7F6C00" fill-opacity="0.5"/>
<path d="M273.874 29.4352L272.627 32.6538L285.631 37.3157L286.878 34.097L273.874 29.4352Z" fill="#7F6C00" fill-opacity="0.5"/>
<path d="M272.314 51.1695C272.314 52.4507 271.23 53.494 269.898 53.494C268.566 53.494 267.481 52.4507 267.481 51.1695C267.481 49.8882 268.56 48.845 269.898 48.845C271.236 48.845 272.314 49.8882 272.314 51.1695Z" fill="#7F6C00" fill-opacity="0.5"/>
<path d="M295.718 73.7736L294.471 76.9922L307.474 81.654L308.721 78.4354L295.718 73.7736Z" fill="#7F6C00" fill-opacity="0.5"/>
<path d="M296.885 97.708C296.885 98.9893 295.8 100.033 294.468 100.033C293.136 100.033 292.052 98.9893 292.052 97.708C292.052 96.4268 293.136 95.3835 294.468 95.3835C295.8 95.3835 296.885 96.4207 296.885 97.708Z" fill="#7F6C00" fill-opacity="0.5"/>
<path d="M285.582 67.2335L284.333 65.2262C284.758 64.9761 288.392 62.6455 285.95 57.5755L288.158 56.5872C290.897 62.2733 287.676 66.0377 285.582 67.2335Z" fill="#7F6C00" fill-opacity="0.5"/>
<path d="M287.096 78.2987L279.96 84.2766L281.559 86.0434L288.696 80.0655L287.096 78.2987Z" fill="#7F6C00" fill-opacity="0.5"/>
<path d="M277.477 70.4608C277.477 71.986 276.196 73.2246 274.61 73.2246C273.024 73.2246 271.743 71.986 271.743 70.4608C271.743 68.9355 273.024 67.7031 274.61 67.7031C276.196 67.7031 277.477 68.9416 277.477 70.4608Z" fill="#7F6C00" fill-opacity="0.5"/>
<path d="M208.951 21.3414L201.813 27.3181L203.413 29.0852L210.55 23.1084L208.951 21.3414Z" fill="#7F6C00" fill-opacity="0.5"/>
<path d="M216.868 59.9426L220.75 61.352C220.458 62.1146 218.162 68.9417 227.01 73.2246L225.145 76.7876C215.219 71.98 215.397 63.6643 216.875 59.9365L216.868 59.9426Z" fill="#7F6C00" fill-opacity="0.5"/>
<path d="M207.311 74.6243L205.043 75.4788L208.494 83.9545L210.762 83.1L207.311 74.6243Z" fill="#7F6C00" fill-opacity="0.5"/>
<path d="M200.558 66.1026L193.42 72.0781L195.019 73.8455L202.157 67.8699L200.558 66.1026Z" fill="#7F6C00" fill-opacity="0.5"/>
<path d="M192.773 45.7699C192.773 47.2951 191.485 48.5276 189.906 48.5276C188.327 48.5276 187.039 47.289 187.039 45.7699C187.039 44.2507 188.32 43.0122 189.906 43.0122C191.491 43.0122 192.773 44.2507 192.773 45.7699Z" fill="#7F6C00" fill-opacity="0.5"/>
<path d="M204.849 56.2638L203.6 54.2565C204.025 54.0064 207.659 51.6758 205.217 46.6058L207.424 45.6174C210.164 51.3036 206.942 55.0679 204.849 56.2638Z" fill="#7F6C00" fill-opacity="0.5"/>
<path d="M197.847 6.9979C197.847 8.52316 196.566 9.75556 194.98 9.75556C193.394 9.75556 192.113 8.51706 192.113 6.9979C192.113 5.47874 193.394 4.24023 194.98 4.24023C196.566 4.24023 197.847 5.47264 197.847 6.9979Z" fill="#7F6C00" fill-opacity="0.5"/>
<path d="M247.331 76.1409L251.213 77.5502C250.921 78.3128 248.625 85.1399 257.473 89.4228L255.608 92.9858C245.682 88.1782 245.86 79.8625 247.338 76.1348L247.331 76.1409Z" fill="#7F6C00" fill-opacity="0.5"/>
<path d="M294.748 0.748356L287.61 6.7251L289.209 8.49216L296.347 2.51541L294.748 0.748356Z" fill="#7F6C00" fill-opacity="0.5"/>
<path d="M229.8 99.1625L228.554 102.381L241.558 107.041L242.805 103.822L229.8 99.1625Z" fill="#7F6C00" fill-opacity="0.5"/>
<path d="M230.968 123.131C230.968 124.412 229.883 125.456 228.551 125.456C227.219 125.456 226.135 124.412 226.135 123.131C226.135 121.85 227.213 120.807 228.551 120.807C229.89 120.807 230.968 121.85 230.968 123.131Z" fill="#7F6C00" fill-opacity="0.5"/>
<path d="M212.909 97.0096L205.771 102.986L207.371 104.753L214.508 98.7766L212.909 97.0096Z" fill="#7F6C00" fill-opacity="0.5"/>
<path d="M193.693 107.689L197.574 109.105C197.283 109.868 194.987 116.695 203.834 120.977L201.97 124.541C192.044 119.733 192.221 111.417 193.699 107.689H193.693Z" fill="#7F6C00" fill-opacity="0.5"/>
<path d="M278.954 99.6184L276.687 100.473L280.138 108.949L282.406 108.094L278.954 99.6184Z" fill="#7F6C00" fill-opacity="0.5"/>
<path d="M264.554 104.27L257.415 110.245L259.014 112.013L266.152 106.037L264.554 104.27Z" fill="#7F6C00" fill-opacity="0.5"/>
<path d="M299.752 116.115C299.752 117.64 298.471 118.879 296.885 118.879C295.3 118.879 294.019 117.64 294.019 116.115C294.019 114.59 295.3 113.357 296.885 113.357C298.471 113.357 299.752 114.59 299.752 116.115Z" fill="#7F6C00" fill-opacity="0.5"/>
<path d="M231.989 20.292C231.989 22.9338 229.763 25.0691 227.023 25.0691C224.283 25.0691 222.057 22.9277 222.057 20.292C222.057 17.6564 224.283 15.5149 227.023 15.5149C229.763 15.5149 231.989 17.6564 231.989 20.292Z" fill="#7F6C00" fill-opacity="0.5"/>
<path d="M243.83 86.2015C243.83 89.7279 240.855 92.5832 237.189 92.5832C233.523 92.5832 230.549 89.7218 230.549 86.2015C230.549 82.6812 233.523 79.8137 237.189 79.8137C240.855 79.8137 243.83 82.6751 243.83 86.2015Z" fill="#7F6C00" fill-opacity="0.5"/>
<path d="M307.04 64.8296C307.04 67.4714 304.814 69.6067 302.074 69.6067C299.334 69.6067 297.107 67.4653 297.107 64.8296C297.107 62.194 299.334 60.0525 302.074 60.0525C304.814 60.0525 307.04 62.194 307.04 64.8296Z" fill="#7F6C00" fill-opacity="0.5"/>
<path d="M280.933 10.7317C280.933 13.3734 278.707 15.5088 275.967 15.5088C273.227 15.5088 271.001 13.3673 271.001 10.7317C271.001 8.09605 273.227 5.95459 275.967 5.95459C278.707 5.95459 280.933 8.09605 280.933 10.7317Z" fill="#7F6C00" fill-opacity="0.5"/>
</g>
<mask id="mask3_137_1221" style="mask-type:luminance" maskUnits="userSpaceOnUse" x="108" y="-85" width="83" height="148">
<path d="M190.909 -84.1943H108.457V62.8407H190.909V-84.1943Z" fill="white"/>
</mask>
<g mask="url(#mask3_137_1221)">
<path d="M141.393 -13.2698L145.275 -11.8604C144.983 -11.0978 142.687 -4.27075 151.535 0.0121847L149.67 3.57519C139.744 -1.23243 139.921 -9.54814 141.399 -13.2759L141.393 -13.2698Z" fill="#7F6C00" fill-opacity="0.5"/>
<path d="M131.835 1.41191L129.567 2.26636L133.019 10.7421L135.286 9.88764L131.835 1.41191Z" fill="#7F6C00" fill-opacity="0.5"/>
<path d="M125.083 -7.10981L117.944 -1.13428L119.543 0.633049L126.682 -5.34249L125.083 -7.10981Z" fill="#7F6C00" fill-opacity="0.5"/>
<path d="M171.856 2.92845L175.737 4.33779C175.446 5.10042 173.15 11.9275 181.997 16.2104L180.133 19.7734C170.207 14.9658 170.384 6.6501 171.862 2.92236L171.856 2.92845Z" fill="#7F6C00" fill-opacity="0.5"/>
<path d="M154.325 25.9501L153.078 29.1689L166.083 33.8286L167.329 30.6098L154.325 25.9501Z" fill="#7F6C00" fill-opacity="0.5"/>
<path d="M155.492 49.9187C155.492 51.2 154.408 52.2432 153.076 52.2432C151.744 52.2432 150.659 51.2 150.659 49.9187C150.659 48.6375 151.737 47.5942 153.076 47.5942C154.414 47.5942 155.492 48.6375 155.492 49.9187Z" fill="#7F6C00" fill-opacity="0.5"/>
<path d="M137.433 23.7972L130.296 29.7739L131.895 31.541L139.032 25.5642L137.433 23.7972Z" fill="#7F6C00" fill-opacity="0.5"/>
<path d="M118.217 34.4771L122.099 35.8925C121.807 36.6551 119.511 43.4822 128.359 47.7651L126.494 51.3281C116.568 46.5205 116.746 38.2048 118.223 34.4771H118.217Z" fill="#7F6C00" fill-opacity="0.5"/>
<path d="M189.078 31.0574L181.939 37.033L183.538 38.8003L190.677 32.8248L189.078 31.0574Z" fill="#7F6C00" fill-opacity="0.5"/>
<path d="M168.354 12.9891C168.354 16.5155 165.38 19.3708 161.714 19.3708C158.048 19.3708 155.073 16.5094 155.073 12.9891C155.073 9.46881 158.048 6.60132 161.714 6.60132C165.38 6.60132 168.354 9.46271 168.354 12.9891Z" fill="#7F6C00" fill-opacity="0.5"/>
</g>
</g>
<defs>
<clipPath id="clip0_137_1221">
<rect width="300" height="186.082" fill="white"/>
</clipPath>
</defs>
</svg>
