<svg width="535" height="651" viewBox="0 0 535 651" fill="none" xmlns="http://www.w3.org/2000/svg">
<g clip-path="url(#clip0_462_44)">
<path fill-rule="evenodd" clip-rule="evenodd" d="M535 0H0V651H535V0ZM448 207H87V444H448V207Z" fill="#FFD700"/>
<path fill-rule="evenodd" clip-rule="evenodd" d="M33 32V620.5L501 620V32H33ZM448 207H87V444H448V207Z" fill="#DB0032"/>
<path d="M390.224 123.022C390.759 123.179 391.281 123.327 391.817 123.484C391.676 123.641 391.634 123.78 391.535 123.798C390.534 123.946 389.533 124.077 388.405 124.234C388.236 124.539 388.052 124.879 387.827 125.28C387.559 125.297 387.22 125.359 386.896 125.332C384.062 125.149 381.228 124.957 378.394 124.766C377.971 124.739 377.534 124.705 377.097 124.713C376.42 124.731 376.011 125.01 375.729 125.359C375.433 125.716 375.715 126.187 376.336 126.248C377.605 126.379 378.902 126.466 380.185 126.571C380.692 126.614 381.242 126.614 381.454 127.137C380.495 127.242 379.536 127.338 378.352 127.469C378.775 127.861 379.113 128.184 379.593 128.62C378.14 128.646 376.886 128.663 375.617 128.689C375.18 129.352 376.082 129.718 376.209 130.154C376.998 130.651 378.352 130.276 379.142 131.035C377.393 131.288 375.842 131.541 374.221 131.471C369.92 131.296 365.606 131.096 361.306 130.921C357.781 130.782 354.242 130.677 350.703 130.573C350.054 130.555 349.392 130.625 348.715 130.66C348.785 131.131 349.321 131.087 349.688 131.113C352.86 131.331 356.033 131.532 359.219 131.75C363.505 132.046 367.791 132.36 372.078 132.665C373.953 132.805 375.828 132.831 377.619 133.337C378.676 133.633 379.987 133.598 381.172 133.72C381.75 133.781 382.328 133.842 382.977 133.912C383.005 134.479 382.229 134.662 381.933 135.011C381.665 135.342 381.299 135.647 380.96 135.953C380.763 136.127 380.509 136.275 380.312 136.45C379.311 137.287 379.409 137.757 380.735 138.499C380.918 138.603 381.144 138.682 381.341 138.769C380.993 139.711 381.162 140.963 381.849 142.527C383.132 142.867 384.922 142.972 384.683 144.402C383.343 144.358 382.004 144.306 380.65 144.262C379.621 144.227 378.634 144.166 377.703 144.628C377.323 144.82 376.561 144.794 375.969 144.768C369.328 144.524 362.702 144.245 356.061 144.027C353.481 143.939 350.872 144.009 348.292 144C347.587 144 346.91 144.027 346.276 144.471C346.741 144.602 347.136 144.803 347.573 144.829C349.801 144.977 352.042 145.099 354.284 145.204C357.118 145.343 359.952 145.448 362.758 145.57C363.082 145.901 363.336 146.163 363.618 146.451C365.395 146.381 366.988 146.939 368.764 146.983C370.654 147.035 372.529 147.262 374.418 147.418C376.209 147.567 378.014 147.724 379.762 147.872C380.41 148.465 381.031 149.014 381.722 149.633C381.045 149.781 380.03 149.808 379.691 150.121C378.803 150.906 377.633 150.732 376.477 150.714C373.192 150.68 369.949 150.453 366.72 150.095C366.043 150.017 365.338 150.043 364.647 150.026C362.659 149.973 360.685 149.947 358.697 149.877C354.298 149.712 349.913 149.529 345.514 149.354C344.302 149.302 343.103 149.258 341.891 149.223C341.2 149.206 340.481 149.11 339.832 149.206C336.505 149.712 333.135 149.354 329.794 149.406C325.564 149.468 321.334 149.406 317.118 149.406C316.639 149.406 316.145 149.546 315.666 149.651C315.187 149.764 314.75 149.965 314.27 150.034C313.565 150.121 312.804 150.148 312.959 149.415C311.704 149.476 310.59 149.311 309.674 149.904C309.448 150.043 308.856 150.026 308.447 149.982C305.909 149.703 303.357 149.869 300.805 149.799C296.66 149.694 292.543 150.13 288.398 149.991C287.538 149.965 286.678 150.034 285.818 150.052C285.211 150.06 284.534 150.165 284.013 150.034C282.18 149.59 280.488 149.869 278.74 150.226C277.936 150.392 277.048 150.418 276.188 150.444C271.549 150.592 266.91 150.854 262.257 150.671C260.396 151.02 258.549 150.758 256.688 150.688C255.236 150.636 253.77 150.81 252.303 150.636C251.993 150.601 251.584 150.636 251.302 150.732C250.047 151.124 248.807 151.028 247.524 150.81C247.115 150.741 246.593 150.592 246.269 150.688C244.45 151.22 242.546 150.828 240.699 150.906C238.303 151.002 235.877 150.863 233.466 150.828C229.237 150.758 225.007 150.688 220.791 150.618C217.083 150.549 213.375 150.505 209.667 150.401C207.791 150.348 205.944 150.121 204.027 150.305C202.687 150.435 201.277 150.27 199.91 150.209C197.076 150.078 194.242 149.903 191.408 149.79C189.039 149.694 186.671 149.398 184.274 149.581C183.696 149.624 182.934 149.651 182.497 149.468C181.313 148.971 180.072 149.049 178.789 149.049C178.042 149.049 177.266 148.753 176.533 148.796C173.896 148.962 171.471 148.256 168.891 148.203C167.509 148.177 166.128 148.072 164.76 148.116C163.519 148.16 162.349 148.055 161.221 147.759C159.036 147.183 156.695 147.026 154.383 147.061C152.409 147.087 150.675 146.721 148.912 146.329C148.348 146.206 147.841 145.98 147.305 145.814C146.374 145.529 145.322 145.529 144.147 145.814C142.243 145.335 141.454 144.253 140.706 143.181C140.523 142.919 140.664 142.562 140.692 142.257C140.721 141.838 140.932 141.428 140.481 141.018C140.354 140.905 140.467 140.6 140.636 140.46C140.918 140.225 140.904 140.024 140.89 139.737C140.847 138.682 141.665 138.237 143.414 138.254C143.808 138.254 144.203 138.228 144.57 138.22C144.781 137.644 144.09 137.365 143.837 136.824C144.189 136.362 144.626 135.796 145.077 135.22C144.485 134.374 143.893 133.511 143.287 132.665C143.963 131.654 144.189 130.555 145.669 129.901C145.115 128.605 144.339 127.751 143.343 127.338C143.879 127.059 144.386 126.788 145.007 126.475C144.697 126.204 144.372 125.934 143.963 125.568C144.993 125.228 145.951 124.905 146.882 124.6C146.811 124.242 146.699 123.946 146.727 123.658C146.769 123.353 146.967 123.057 147.108 122.708C145.444 122.089 143.399 122.019 141.947 120.929C141.411 119.935 141.567 118.767 142.187 117.581C142.356 117.258 142.455 116.979 142.948 116.814C143.089 116.77 143.188 116.674 143.301 116.587C143.653 116.317 142.723 115.959 143.399 115.75C143.949 115.575 143.822 115.331 143.752 115.087C143.696 114.878 143.583 114.677 143.428 114.486C143.132 114.128 143.033 113.805 143.456 113.448C144.02 112.968 143.752 112.393 143.569 111.905C143.456 111.591 142.85 111.347 142.412 111.024C142.624 109.202 142.85 107.318 143.075 105.348C142.412 105.121 141.764 104.894 141.087 104.668C141.172 104.467 141.158 104.249 141.313 104.188C142.018 103.9 142.779 103.656 143.611 103.36C143.851 102.941 143.132 102.68 142.864 102.226C143.132 102.034 143.512 101.825 143.766 101.572C144.584 100.796 144.485 100.561 143.075 99.8195C143.371 99.5841 143.611 99.1917 143.978 99.1394C145.091 98.9912 144.795 98.4157 145.091 97.971C144.556 97.5351 143.992 97.0729 143.329 96.5323C143.907 95.8522 143.921 95.0762 143.865 94.274C143.808 93.3759 143.865 92.4778 144.344 91.5885C144.711 90.8996 144.682 90.1411 144.866 89.2342C145.19 89.0947 145.74 88.8593 146.332 88.5977C146.29 88.1966 146.248 87.7868 146.191 87.3509C146.403 87.2898 146.642 87.1765 146.868 87.1765C149.279 87.2288 151.69 87.3073 154.101 87.377C154.608 87.3945 155.144 87.5165 155.624 87.4468C158.528 87.0195 161.334 87.7432 164.224 87.5078C164.224 87.6124 164.224 87.7258 164.224 87.8304H160.446C162.264 88.2402 163.956 88.8767 165.958 88.7285C166.255 88.7024 166.565 88.7983 166.875 88.8244C167.467 88.868 168.059 88.9465 168.637 88.9291C168.905 88.9291 169.286 88.7547 169.399 88.5977C169.667 88.2577 169.089 88.1705 168.736 88.0048C169.187 87.7258 169.765 87.4729 169.455 86.9149C169.117 86.8626 168.722 86.8103 168.271 86.7405C168.412 86.6882 168.525 86.6184 168.637 86.6184C169.582 86.6184 170.541 86.6359 171.485 86.6184C172.346 86.601 173.262 86.6446 174.052 86.4876C175.729 86.1563 177.45 86.1825 179.156 86.0778C181.581 85.9209 183.978 86.0342 186.389 86.1302C192.592 86.3917 198.796 86.6359 205 86.88C210.851 87.1067 216.716 87.3421 222.568 87.534C230.238 87.7781 237.922 87.9699 245.592 88.1792C249.991 88.3013 254.39 88.3972 258.789 88.528C261.2 88.5977 263.625 88.6413 266.022 88.7983C267.629 88.9029 269.208 88.9465 270.83 88.9116C271.916 88.8855 273.001 89.1296 274.101 89.1558C275.215 89.1906 276.343 89.0773 277.457 89.086C278.049 89.086 278.655 89.1732 279.219 89.2778C280.558 89.5307 281.926 89.5394 283.28 89.4086C284.929 89.243 286.551 89.2778 288.172 89.4173C289.004 89.4871 289.794 89.7225 290.837 89.9318C291.387 89.6441 292.176 89.4261 293.206 89.4697C297.323 89.6789 301.454 89.8272 305.585 89.9928C308.25 90.0975 310.929 90.2021 313.593 90.2893C317.739 90.4288 321.87 90.5509 326.015 90.6817C330.329 90.8124 334.63 90.9432 338.944 91.074C343.075 91.1961 347.22 91.3182 351.352 91.4228C354.975 91.51 358.585 91.5362 362.208 91.6495C364.351 91.7193 366.494 91.8849 368.623 92.0157C371.274 92.1814 373.939 92.3558 376.589 92.5389C377.858 92.6261 379.142 92.7481 380.368 92.8528C380.636 93.4195 379.973 93.5852 379.635 93.8642C379.015 94.3787 379.141 94.7013 380.114 94.9803C380.58 95.1111 381.073 95.207 381.679 95.3378V97.91C383.188 98.2152 383.808 99.1307 385.077 99.5667C385.289 99.6364 385.585 99.7934 385.557 99.898C385.402 100.805 386.656 101.162 387.376 101.738C387.629 101.947 387.897 102.148 388.207 102.383C387.643 102.636 387.164 102.854 386.6 103.107C386.572 103.438 386.544 103.804 386.501 104.24C384.386 104.572 382.257 104.903 380.143 105.226C380.481 106.394 380.622 106.516 382.088 106.682C384.626 106.961 387.178 107.222 389.589 107.475C390.224 107.937 390.675 108.417 391.337 108.713C391.901 108.966 392.705 109.019 393.424 109.167C393.269 109.35 393.227 109.489 393.114 109.507C392.465 109.629 391.746 109.655 391.394 110.117C390.971 110.684 390.971 111.286 391.309 111.835C391.605 112.314 392.042 112.907 392.691 113.117C393.918 113.509 394.03 114.172 394.327 114.817C394.369 114.922 394.369 115.026 394.397 115.148C393.34 116.02 393.41 117.101 393.128 118.113C393.058 118.139 392.973 118.191 392.903 118.191C391.352 118.148 389.787 117.982 388.264 118.095C386.727 118.2 385.232 118.435 383.653 118.296C383.16 118.252 382.638 118.366 382.116 118.383C381.256 118.409 380.396 118.453 379.536 118.435C376.688 118.383 373.854 118.313 370.95 118.435C371.246 118.488 371.528 118.557 371.838 118.592C372.98 118.714 372.994 118.714 373.502 119.543C374.32 119.604 375.18 119.674 376.082 119.743C376.364 120.066 376.66 120.371 376.9 120.641C381.101 121.034 385.19 121.426 389.349 121.818C389.646 122.22 389.913 122.594 390.181 122.969L390.224 123.022ZM166.099 87.9525C166.198 87.9961 166.297 88.0571 166.41 88.0833C166.452 88.092 166.522 88.031 166.593 88.0048C166.494 87.9612 166.381 87.9089 166.283 87.8653C166.226 87.8915 166.156 87.9176 166.099 87.9525ZM139.043 138.952L139 139.039L139.184 139.013L139.043 138.952Z" fill="white"/>
<path d="M196.47 129.539V123.281L191.67 123.81V118.654H202.653V135.047L197.161 133.769C195.412 134.431 193.582 135.047 190.897 135.047C184.388 135.047 177.31 130.156 177.31 119.535C177.31 108.915 184.877 103.451 193.297 103.451C196.104 103.451 198.992 103.803 202.287 105.257L200.334 110.281C197.853 109.224 195.9 109.047 194.355 109.047C189.392 109.047 184.673 111.735 184.673 119.359C184.673 126.102 188.375 130.024 193.134 130.024C194.029 130.024 195.534 129.847 196.47 129.539Z" fill="#AD005E"/>
<path d="M207.097 134.475V103.451L213.402 104.861C215.354 103.935 217.307 103.451 219.219 103.451C226.378 103.451 229.917 107.285 229.917 112.749C229.917 116.671 227.842 120.02 223.531 121.827L231.869 134.475H222.961L217.022 122.488H214.297V134.475H207.097ZM214.297 117.773H216.778C220.683 117.773 222.514 116.098 222.514 113.013C222.514 110.369 220.724 108.651 217.429 108.651C216.208 108.651 214.825 108.827 214.297 108.959V117.773Z" fill="#AD005E"/>
<path d="M232.621 134.475L243.889 104.068H250.397L261.502 134.475H253.733L251.455 127.556H242.262L240.024 134.475H232.621ZM243.563 123.546L249.869 122.797L246.98 112.441L243.563 123.546Z" fill="#AD005E"/>
<path d="M267.294 134.475V109.797H259.28V104.068H282.548V109.797H274.494V134.475H267.294Z" fill="#AD005E"/>
<path d="M292.161 134.475V109.797H284.148V104.068H307.415V109.797H299.361V134.475H292.161Z" fill="#AD005E"/>
<path d="M310.539 134.475V104.068H330.919V109.709H317.739V116.715L327.543 115.393V121.431H317.739V128.834H331.245V134.475H310.539Z" fill="#AD005E"/>
<path d="M333.378 134.475V131.302L349.08 109.444L334.313 110.149V104.068H357.256V108.695L342.571 129.098L357.419 127.556V134.475H333.378Z" fill="#AD005E"/>
<path d="M167.049 185L165.449 183.24C163.729 184.44 160.969 185.52 157.689 185.52C151.769 185.52 148.809 181.72 148.809 177.92C148.809 175 150.929 172.2 153.929 171.04C152.009 168.84 151.409 166.88 151.409 165.32C151.409 160.68 155.689 158.08 160.089 158.08C163.249 158.08 165.649 158.96 168.009 160.88L165.449 164.88C163.689 163.68 162.369 163 160.649 163C159.049 163 158.009 164.2 158.009 165.6C158.009 166.4 158.369 167.32 159.129 168.08L165.929 175.2C166.569 173.96 167.089 172.48 167.369 170.96L171.849 171.92C171.249 174.68 170.489 176.52 169.089 178.72L174.969 185H167.049ZM162.249 179.92L156.729 174C155.769 174.72 155.249 175.8 155.249 177.36C155.249 179.04 156.569 180.96 159.049 180.96C160.329 180.96 161.529 180.48 162.249 179.92Z" fill="#FFD700"/>
<path d="M183.909 181V170.92H180.363V168.58H190.659V170.92H187.095V181H183.909ZM192.041 181V168.58H201.059V170.884H195.227V173.746L199.565 173.206V175.672H195.227V178.696H201.203V181H192.041ZM202.957 181V168.58H205.441L211.687 176.32V168.904L214.855 168.328V181H212.083L206.143 173.638V181H202.957ZM219.786 181V170.92H216.24V168.58H226.536V170.92H222.972V181H219.786ZM227.918 181V168.58H236.936V170.884H231.104V173.746L235.442 173.206V175.672H231.104V178.696H237.08V181H227.918ZM238.024 181V179.704L244.972 170.776L238.438 171.064V168.58H248.59V170.47L242.092 178.804L248.662 178.174V181H238.024ZM257.464 181L252.622 168.58H255.97L259.03 177.526L261.964 168.58H265.276L260.38 181H257.464ZM271.912 181.234C268.006 181.234 265.486 178.426 265.486 174.772C265.486 171.118 267.988 168.328 271.912 168.328C275.854 168.328 278.338 171.1 278.338 174.772C278.338 178.462 275.818 181.234 271.912 181.234ZM271.912 178.84C273.874 178.84 275.08 177.418 275.08 174.772C275.08 172.108 273.838 170.704 271.912 170.704C269.95 170.704 268.744 172.108 268.744 174.772C268.744 177.364 269.95 178.84 271.912 178.84ZM282.487 181V170.92H278.941V168.58H289.237V170.92H285.673V181H282.487ZM290.619 181V168.328L293.409 168.904C294.273 168.526 295.137 168.328 295.983 168.328C299.151 168.328 300.717 169.894 300.717 172.126C300.717 173.728 299.799 175.096 297.891 175.834L301.581 181H297.639L295.011 176.104H293.805V181H290.619ZM293.805 174.178H294.903C296.631 174.178 297.441 173.494 297.441 172.234C297.441 171.154 296.649 170.452 295.191 170.452C294.651 170.452 294.039 170.524 293.805 170.578V174.178ZM302.836 181V168.58H311.854V170.884H306.022V173.746L310.36 173.206V175.672H306.022V178.696H311.998V181H302.836ZM327.104 178.282L327.734 180.46C326.636 180.982 325.268 181.234 323.774 181.234C319.058 181.234 317.06 178.336 317.06 174.862C317.06 171.442 319.112 168.328 323.522 168.328C325.412 168.328 326.294 168.598 327.5 169.156L326.69 171.37C325.754 170.92 325.07 170.74 324.026 170.74C321.47 170.74 320.318 172.63 320.318 174.862C320.318 177.076 321.47 178.912 324.206 178.912C325.25 178.912 326.168 178.696 327.104 178.282ZM329.414 181V168.58H332.6V173.764L337.928 173.332V168.904L341.114 168.328V181H337.928V175.726H332.6V181H329.414ZM342.431 181L347.417 168.58H350.297L355.211 181H351.773L350.765 178.174H346.697L345.707 181H342.431ZM347.273 176.536L350.063 176.23L348.785 172L347.273 176.536ZM356.519 181V168.58H359.003L365.249 176.32V168.904L368.417 168.328V181H365.645L359.705 173.638V181H356.519ZM380.26 178.282L380.89 180.46C379.792 180.982 378.424 181.234 376.93 181.234C372.214 181.234 370.216 178.336 370.216 174.862C370.216 171.442 372.268 168.328 376.678 168.328C378.568 168.328 379.45 168.598 380.656 169.156L379.846 171.37C378.91 170.92 378.226 170.74 377.182 170.74C374.626 170.74 373.474 172.63 373.474 174.862C373.474 177.076 374.626 178.912 377.362 178.912C378.406 178.912 379.324 178.696 380.26 178.282ZM382.57 181V168.58H391.588V170.884H385.756V173.746L390.094 173.206V175.672H385.756V178.696H391.732V181H382.57Z" fill="white"/>
<path d="M58.6361 240.455C61.1466 237.944 61.1469 233.874 58.6367 231.364C56.1265 228.853 52.0564 228.853 49.5458 231.363C47.0352 233.873 47.0349 237.943 49.5451 240.454C52.0553 242.965 56.1255 242.965 58.6361 240.455Z" fill="white"/>
<path d="M58.6361 204.092C61.1466 201.582 61.1469 197.512 58.6367 195.001C56.1265 192.49 52.0564 192.49 49.5458 195C47.0352 197.51 47.0349 201.581 49.5451 204.091C52.0553 206.602 56.1255 206.602 58.6361 204.092Z" fill="white"/>
<path d="M58.639 167.726C61.1496 165.215 61.1499 161.145 58.6397 158.635C56.1295 156.124 52.0593 156.124 49.5487 158.634C47.0382 161.144 47.0379 165.214 49.5481 167.725C52.0583 170.236 56.1284 170.236 58.639 167.726Z" fill="white"/>
<path d="M58.6414 131.363C61.152 128.853 61.1523 124.783 58.6421 122.272C56.1319 119.761 52.0617 119.761 49.5512 122.271C47.0406 124.781 47.0403 128.852 49.5505 131.362C52.0607 133.873 56.1309 133.873 58.6414 131.363Z" fill="white"/>
<path d="M58.6458 95.0001C61.1564 92.4899 61.1567 88.4197 58.6465 85.9091C56.1363 83.3986 52.0661 83.3983 49.5556 85.9085C47.045 88.4187 47.0447 92.4888 49.5549 94.9994C52.0651 97.51 56.1353 97.5103 58.6458 95.0001Z" fill="white"/>
<path d="M58.6488 58.6368C61.1593 56.1266 61.1596 52.0564 58.6494 49.5459C56.1392 47.0353 52.0691 47.035 49.5585 49.5452C47.0479 52.0554 47.0476 56.1256 49.5578 58.6361C52.068 61.1467 56.1382 61.147 58.6488 58.6368Z" fill="white"/>
<path d="M58.6361 457.547C61.1466 455.037 61.1469 450.967 58.6367 448.457C56.1265 445.946 52.0564 445.946 49.5458 448.456C47.0352 450.966 47.0349 455.036 49.5451 457.547C52.0553 460.057 56.1255 460.058 58.6361 457.547Z" fill="white"/>
<path d="M58.6361 421.365C61.1466 418.855 61.1469 414.785 58.6367 412.274C56.1265 409.764 52.0564 409.764 49.5458 412.274C47.0352 414.784 47.0349 418.854 49.5451 421.365C52.0553 423.875 56.1255 423.876 58.6361 421.365Z" fill="white"/>
<path d="M58.639 385.183C61.1496 382.673 61.1499 378.603 58.6397 376.092C56.1295 373.582 52.0593 373.581 49.5487 376.092C47.0382 378.602 47.0379 382.672 49.5481 385.183C52.0583 387.693 56.1284 387.693 58.639 385.183Z" fill="white"/>
<path d="M58.6414 349.001C61.152 346.491 61.1523 342.421 58.6421 339.91C56.1319 337.4 52.0617 337.399 49.5512 339.909C47.0406 342.42 47.0403 346.49 49.5505 349C52.0607 351.511 56.1309 351.511 58.6414 349.001Z" fill="white"/>
<path d="M58.6458 312.819C61.1564 310.309 61.1567 306.239 58.6465 303.728C56.1363 301.217 52.0661 301.217 49.5556 303.727C47.045 306.238 47.0447 310.308 49.5549 312.818C52.0651 315.329 56.1353 315.329 58.6458 312.819Z" fill="white"/>
<path d="M58.6488 276.637C61.1593 274.127 61.1596 270.056 58.6494 267.546C56.1392 265.035 52.0691 265.035 49.5585 267.545C47.0479 270.055 47.0476 274.126 49.5578 276.636C52.068 279.147 56.1382 279.147 58.6488 276.637Z" fill="white"/>
<path d="M58.639 602.726C61.1496 600.215 61.1499 596.145 58.6397 593.635C56.1295 591.124 52.0593 591.124 49.5487 593.634C47.0382 596.144 47.0379 600.214 49.5481 602.725C52.0583 605.236 56.1284 605.236 58.639 602.726Z" fill="white"/>
<path d="M58.6414 566.363C61.152 563.853 61.1523 559.783 58.6421 557.272C56.1319 554.761 52.0617 554.761 49.5512 557.271C47.0406 559.781 47.0403 563.852 49.5505 566.362C52.0607 568.873 56.1309 568.873 58.6414 566.363Z" fill="white"/>
<path d="M58.6458 530C61.1564 527.489 61.1567 523.419 58.6465 520.909C56.1363 518.398 52.0661 518.398 49.5556 520.908C47.045 523.418 47.0447 527.488 49.5549 529.999C52.0651 532.51 56.1353 532.51 58.6458 530Z" fill="white"/>
<path d="M58.6488 493.637C61.1593 491.127 61.1596 487.056 58.6494 484.546C56.1392 482.035 52.0691 482.035 49.5585 484.545C47.0479 487.055 47.0476 491.126 49.5578 493.636C52.068 496.147 56.1382 496.147 58.6488 493.637Z" fill="white"/>
<path d="M480.636 240.455C483.147 237.944 483.147 233.874 480.637 231.364C478.127 228.853 474.056 228.853 471.546 231.363C469.035 233.873 469.035 237.943 471.545 240.454C474.055 242.965 478.125 242.965 480.636 240.455Z" fill="white"/>
<path d="M480.636 204.092C483.147 201.582 483.147 197.512 480.637 195.001C478.127 192.49 474.056 192.49 471.546 195C469.035 197.51 469.035 201.581 471.545 204.091C474.055 206.602 478.125 206.602 480.636 204.092Z" fill="white"/>
<path d="M480.639 167.726C483.15 165.215 483.15 161.145 480.64 158.635C478.129 156.124 474.059 156.124 471.549 158.634C469.038 161.144 469.038 165.214 471.548 167.725C474.058 170.236 478.128 170.236 480.639 167.726Z" fill="white"/>
<path d="M480.641 131.363C483.152 128.853 483.152 124.783 480.642 122.272C478.132 119.761 474.062 119.761 471.551 122.271C469.041 124.781 469.04 128.852 471.551 131.362C474.061 133.873 478.131 133.873 480.641 131.363Z" fill="white"/>
<path d="M480.646 95.0001C483.156 92.4899 483.157 88.4197 480.647 85.9091C478.136 83.3986 474.066 83.3983 471.556 85.9085C469.045 88.4187 469.045 92.4888 471.555 94.9994C474.065 97.51 478.135 97.5103 480.646 95.0001Z" fill="white"/>
<path d="M480.649 58.6368C483.159 56.1266 483.16 52.0564 480.649 49.5459C478.139 47.0353 474.069 47.035 471.558 49.5452C469.048 52.0554 469.048 56.1256 471.558 58.6361C474.068 61.1467 478.138 61.147 480.649 58.6368Z" fill="white"/>
<path d="M480.636 457.547C483.147 455.037 483.147 450.967 480.637 448.457C478.127 445.946 474.056 445.946 471.546 448.456C469.035 450.966 469.035 455.036 471.545 457.547C474.055 460.057 478.125 460.058 480.636 457.547Z" fill="white"/>
<path d="M480.636 421.365C483.147 418.855 483.147 414.785 480.637 412.274C478.127 409.764 474.056 409.764 471.546 412.274C469.035 414.784 469.035 418.854 471.545 421.365C474.055 423.875 478.125 423.876 480.636 421.365Z" fill="white"/>
<path d="M480.639 385.183C483.15 382.673 483.15 378.603 480.64 376.092C478.129 373.582 474.059 373.581 471.549 376.092C469.038 378.602 469.038 382.672 471.548 385.183C474.058 387.693 478.128 387.693 480.639 385.183Z" fill="white"/>
<path d="M480.641 349.001C483.152 346.491 483.152 342.421 480.642 339.91C478.132 337.4 474.062 337.399 471.551 339.909C469.041 342.42 469.04 346.49 471.551 349C474.061 351.511 478.131 351.511 480.641 349.001Z" fill="white"/>
<path d="M480.646 312.819C483.156 310.309 483.157 306.239 480.647 303.728C478.136 301.217 474.066 301.217 471.556 303.727C469.045 306.238 469.045 310.308 471.555 312.818C474.065 315.329 478.135 315.329 480.646 312.819Z" fill="white"/>
<path d="M480.649 276.637C483.159 274.127 483.16 270.056 480.649 267.546C478.139 265.035 474.069 265.035 471.558 267.545C469.048 270.055 469.048 274.126 471.558 276.636C474.068 279.147 478.138 279.147 480.649 276.637Z" fill="white"/>
<path d="M480.639 602.726C483.15 600.215 483.15 596.145 480.64 593.635C478.129 591.124 474.059 591.124 471.549 593.634C469.038 596.144 469.038 600.214 471.548 602.725C474.058 605.236 478.128 605.236 480.639 602.726Z" fill="white"/>
<path d="M480.641 566.363C483.152 563.853 483.152 559.783 480.642 557.272C478.132 554.761 474.062 554.761 471.551 557.271C469.041 559.781 469.04 563.852 471.551 566.362C474.061 568.873 478.131 568.873 480.641 566.363Z" fill="white"/>
<path d="M480.646 530C483.156 527.489 483.157 523.419 480.647 520.909C478.136 518.398 474.066 518.398 471.556 520.908C469.045 523.418 469.045 527.488 471.555 529.999C474.065 532.51 478.135 532.51 480.646 530Z" fill="white"/>
<path d="M480.649 493.637C483.159 491.127 483.16 487.056 480.649 484.546C478.139 482.035 474.069 482.035 471.558 484.545C469.048 487.055 469.048 491.126 471.558 493.636C474.068 496.147 478.138 496.147 480.649 493.637Z" fill="white"/>
<path d="M270.455 593.558C267.944 591.048 263.874 591.047 261.364 593.558C258.853 596.068 258.853 600.138 261.363 602.649C263.873 605.159 267.943 605.159 270.454 602.649C272.965 600.139 272.965 596.069 270.455 593.558Z" fill="white"/>
<path d="M234.092 593.558C231.582 591.048 227.512 591.047 225.001 593.558C222.49 596.068 222.49 600.138 225 602.649C227.51 605.159 231.581 605.159 234.091 602.649C236.602 600.139 236.602 596.069 234.092 593.558Z" fill="white"/>
<path d="M197.726 593.555C195.215 591.045 191.145 591.044 188.635 593.555C186.124 596.065 186.124 600.135 188.634 602.646C191.144 605.156 195.214 605.156 197.725 602.646C200.236 600.136 200.236 596.066 197.726 593.555Z" fill="white"/>
<path d="M161.363 593.553C158.853 591.042 154.783 591.042 152.272 593.552C149.761 596.062 149.761 600.133 152.271 602.643C154.781 605.154 158.852 605.154 161.362 602.644C163.873 600.134 163.873 596.063 161.363 593.553Z" fill="white"/>
<path d="M125 593.548C122.49 591.038 118.42 591.038 115.909 593.548C113.399 596.058 113.398 600.128 115.908 602.639C118.419 605.149 122.489 605.15 124.999 602.639C127.51 600.129 127.51 596.059 125 593.548Z" fill="white"/>
<path d="M88.6368 593.546C86.1266 591.035 82.0564 591.035 79.5459 593.545C77.0353 596.055 77.035 600.125 79.5452 602.636C82.0554 605.146 86.1256 605.147 88.6361 602.637C91.1467 600.126 91.147 596.056 88.6368 593.546Z" fill="white"/>
<path d="M451.365 593.558C448.855 591.048 444.785 591.047 442.274 593.558C439.764 596.068 439.764 600.138 442.274 602.649C444.784 605.159 448.854 605.159 451.365 602.649C453.875 600.139 453.876 596.069 451.365 593.558Z" fill="white"/>
<path d="M415.183 593.555C412.673 591.045 408.603 591.044 406.092 593.555C403.582 596.065 403.581 600.135 406.092 602.646C408.602 605.156 412.672 605.156 415.183 602.646C417.693 600.136 417.693 596.066 415.183 593.555Z" fill="white"/>
<path d="M379.001 593.553C376.491 591.042 372.421 591.042 369.91 593.552C367.4 596.062 367.399 600.133 369.909 602.643C372.42 605.154 376.49 605.154 379 602.644C381.511 600.134 381.511 596.063 379.001 593.553Z" fill="white"/>
<path d="M342.819 593.548C340.309 591.038 336.239 591.038 333.728 593.548C331.217 596.058 331.217 600.128 333.727 602.639C336.238 605.149 340.308 605.15 342.818 602.639C345.329 600.129 345.329 596.059 342.819 593.548Z" fill="white"/>
<path d="M306.637 593.546C304.127 591.035 300.056 591.035 297.546 593.545C295.035 596.055 295.035 600.125 297.545 602.636C300.055 605.146 304.126 605.147 306.636 602.637C309.147 600.126 309.147 596.056 306.637 593.546Z" fill="white"/>
<path d="M270.455 49.5583C267.944 47.0477 263.874 47.0474 261.364 49.5576C258.853 52.0678 258.853 56.138 261.363 58.6485C263.873 61.1591 267.943 61.1594 270.454 58.6492C272.965 56.139 272.965 52.0688 270.455 49.5583Z" fill="white"/>
<path d="M234.092 49.5583C231.582 47.0477 227.512 47.0474 225.001 49.5576C222.49 52.0678 222.49 56.138 225 58.6485C227.51 61.1591 231.581 61.1594 234.091 58.6492C236.602 56.139 236.602 52.0688 234.092 49.5583Z" fill="white"/>
<path d="M197.726 49.5553C195.215 47.0448 191.145 47.0445 188.635 49.5547C186.124 52.0649 186.124 56.135 188.634 58.6456C191.144 61.1562 195.214 61.1565 197.725 58.6463C200.236 56.1361 200.236 52.0659 197.726 49.5553Z" fill="white"/>
<path d="M161.363 49.5529C158.853 47.0423 154.783 47.042 152.272 49.5522C149.761 52.0624 149.761 56.1326 152.271 58.6432C154.781 61.1537 158.852 61.154 161.362 58.6438C163.873 56.1336 163.873 52.0635 161.363 49.5529Z" fill="white"/>
<path d="M125 49.5485C122.49 47.0379 118.42 47.0376 115.909 49.5478C113.399 52.058 113.398 56.1282 115.908 58.6388C118.419 61.1493 122.489 61.1496 124.999 58.6394C127.51 56.1292 127.51 52.0591 125 49.5485Z" fill="white"/>
<path d="M88.6368 49.5456C86.1266 47.035 82.0564 47.0347 79.5459 49.5449C77.0353 52.0551 77.035 56.1253 79.5452 58.6358C82.0554 61.1464 86.1256 61.1467 88.6361 58.6365C91.1467 56.1263 91.147 52.0561 88.6368 49.5456Z" fill="white"/>
<path d="M451.365 49.5583C448.855 47.0477 444.785 47.0474 442.274 49.5576C439.764 52.0678 439.764 56.138 442.274 58.6485C444.784 61.1591 448.854 61.1594 451.365 58.6492C453.875 56.139 453.876 52.0688 451.365 49.5583Z" fill="white"/>
<path d="M415.183 49.5553C412.673 47.0448 408.603 47.0445 406.092 49.5547C403.582 52.0649 403.581 56.135 406.092 58.6456C408.602 61.1562 412.672 61.1565 415.183 58.6463C417.693 56.1361 417.693 52.0659 415.183 49.5553Z" fill="white"/>
<path d="M379.001 49.5529C376.491 47.0423 372.421 47.042 369.91 49.5522C367.4 52.0624 367.399 56.1326 369.909 58.6432C372.42 61.1537 376.49 61.154 379 58.6438C381.511 56.1336 381.511 52.0635 379.001 49.5529Z" fill="white"/>
<path d="M342.819 49.5485C340.309 47.0379 336.239 47.0376 333.728 49.5478C331.217 52.058 331.217 56.1282 333.727 58.6388C336.238 61.1493 340.308 61.1496 342.818 58.6394C345.329 56.1292 345.329 52.0591 342.819 49.5485Z" fill="white"/>
<path d="M306.637 49.5456C304.127 47.035 300.056 47.0347 297.546 49.5449C295.035 52.0551 295.035 56.1253 297.545 58.6358C300.055 61.1464 304.126 61.1467 306.636 58.6365C309.147 56.1263 309.147 52.0561 306.637 49.5456Z" fill="white"/>
</g>
<defs>
<clipPath id="clip0_462_44">
<rect width="535" height="651" fill="white"/>
</clipPath>
</defs>
</svg>
