<svg width="382" height="1026" viewBox="0 0 382 1026" fill="none" xmlns="http://www.w3.org/2000/svg">
<path fill-rule="evenodd" clip-rule="evenodd" d="M0 1025.15H381.471C381.471 1025.15 381.471 1025.15 381.471 1025.15C381.471 924.117 296.076 842.211 190.735 842.211C85.3951 842.211 0 924.117 0 1025.15C0 1025.15 0 1025.15 0 1025.15Z" fill="#FF2144"/>
<path fill-rule="evenodd" clip-rule="evenodd" d="M190.735 812.94C296.075 812.94 381.47 731.035 381.471 630H0C0.000567453 731.035 85.3955 812.94 190.735 812.94Z" fill="#0032FF"/>
<path fill-rule="evenodd" clip-rule="evenodd" d="M0 395.153H381.471C381.471 395.153 381.471 395.153 381.471 395.152C381.471 294.117 296.076 212.211 190.735 212.211C85.3951 212.211 0 294.117 0 395.152C0 395.153 0 395.153 0 395.153Z" fill="#FF2144"/>
<path fill-rule="evenodd" clip-rule="evenodd" d="M190.735 182.94C296.075 182.94 381.47 101.035 381.471 1.52588e-05L0 1.52588e-05C0.000567453 101.035 85.3955 182.94 190.735 182.94Z" fill="#0032FF"/>
<rect y="594.647" width="164.647" height="381.471" transform="rotate(-90 0 594.647)" fill="#E10037"/>
</svg>
