<svg width="535" height="651" viewBox="0 0 535 651" fill="none" xmlns="http://www.w3.org/2000/svg">
<path fill-rule="evenodd" clip-rule="evenodd" d="M535 0H0V651H535V0ZM448 207H87V444H448V207Z" fill="#FFD700"/>
<path fill-rule="evenodd" clip-rule="evenodd" d="M33 32V620.5L501 620V32H33ZM448 207H87V444H448V207Z" fill="#DB0032"/>
<path d="M349.352 537.52C349.352 580.887 385.919 616.041 431.03 616.041V459C385.919 459 349.352 494.154 349.352 537.52Z" fill="#B41432"/>
<path d="M184.978 537.52C184.978 580.887 148.411 616.041 103.3 616.041L103.3 459C148.411 459 184.978 494.154 184.978 537.52Z" fill="#B41432"/>
<path d="M103.3 537.583C103.3 574.909 71.8268 605.166 32.9999 605.166L32.9999 470C71.8268 470 103.3 500.257 103.3 537.583Z" fill="#B41432"/>
<path d="M430.7 537.583C430.7 574.909 462.173 605.166 501 605.166V470C462.173 470 430.7 500.257 430.7 537.583Z" fill="#B41432"/>
<path d="M315.751 546.125C309.742 545.089 297.549 543.087 291.376 542.063C288.826 541.639 287.313 540.285 287.313 537.999C287.313 535.756 288.826 534.36 291.376 533.937C297.549 532.912 309.742 530.911 315.751 529.874C324.115 528.431 331.119 523.669 331.925 515.22C332.849 505.528 325.253 497.374 315.751 497.374H315.053C310.951 497.374 307.626 494.049 307.626 489.948C307.626 481.46 301.421 473.881 292.972 473.075C283.28 472.151 276.759 479.889 275.126 489.249C274.062 495.343 272.019 507.547 271.063 513.624C270.651 516.248 269.245 517.687 267.001 517.687C264.716 517.687 263.351 516.248 262.938 513.624C261.982 507.547 259.939 495.343 258.876 489.249C257.242 479.889 250.722 472.151 241.029 473.075C232.581 473.88 226.375 481.46 226.375 489.947C226.375 494.049 223.05 497.374 218.949 497.374H218.25C208.749 497.374 201.152 505.528 202.076 515.22C202.882 523.669 209.887 528.431 218.25 529.874C224.26 530.911 236.452 532.912 242.625 533.937C245.175 534.36 246.688 535.756 246.688 537.999C246.688 540.285 245.175 541.639 242.625 542.063C236.452 543.087 224.26 545.089 218.25 546.125C209.887 547.568 202.882 552.33 202.076 560.779C201.152 570.471 208.748 578.625 218.25 578.625H218.949C223.05 578.625 226.375 581.951 226.375 586.052V586.053C226.375 594.54 232.58 602.119 241.029 602.925C250.722 603.849 257.242 596.111 258.876 586.751C259.939 580.657 261.982 568.453 262.938 562.376C263.351 559.752 264.716 558.313 267.001 558.313C269.286 558.313 270.651 559.752 271.063 562.376C272.019 568.453 274.063 580.657 275.126 586.751C276.759 596.111 283.28 603.849 292.972 602.925C301.421 602.12 307.626 594.54 307.626 586.053V586.052C307.626 581.951 310.951 578.625 315.053 578.625H315.751C325.253 578.625 332.849 570.471 331.925 560.779C331.119 552.33 324.115 547.568 315.751 546.125Z" fill="white"/>
<path d="M398.685 103.022C399.22 103.179 399.742 103.327 400.278 103.484C400.137 103.641 400.095 103.78 399.996 103.798C398.995 103.946 397.994 104.077 396.866 104.234C396.697 104.539 396.513 104.879 396.288 105.28C396.02 105.297 395.681 105.359 395.357 105.332C392.523 105.149 389.689 104.957 386.855 104.766C386.432 104.739 385.995 104.705 385.558 104.713C384.881 104.731 384.472 105.01 384.19 105.359C383.894 105.716 384.176 106.187 384.797 106.248C386.066 106.379 387.363 106.466 388.646 106.571C389.153 106.614 389.703 106.614 389.915 107.137C388.956 107.242 387.997 107.338 386.813 107.469C387.236 107.861 387.574 108.184 388.054 108.62C386.601 108.646 385.347 108.663 384.078 108.689C383.641 109.352 384.543 109.718 384.67 110.154C385.459 110.651 386.813 110.276 387.603 111.035C385.854 111.288 384.303 111.541 382.682 111.471C378.381 111.296 374.067 111.096 369.767 110.921C366.242 110.782 362.703 110.677 359.164 110.573C358.515 110.555 357.853 110.625 357.176 110.66C357.246 111.131 357.782 111.087 358.149 111.113C361.321 111.331 364.494 111.532 367.68 111.75C371.966 112.046 376.252 112.36 380.539 112.665C382.414 112.805 384.289 112.831 386.08 113.337C387.137 113.633 388.448 113.598 389.633 113.72C390.211 113.781 390.789 113.842 391.438 113.912C391.466 114.479 390.69 114.662 390.394 115.011C390.126 115.342 389.76 115.647 389.421 115.953C389.224 116.127 388.97 116.275 388.773 116.45C387.772 117.287 387.87 117.757 389.196 118.499C389.379 118.603 389.605 118.682 389.802 118.769C389.454 119.711 389.623 120.963 390.31 122.527C391.593 122.867 393.383 122.972 393.144 124.402C391.804 124.358 390.465 124.306 389.111 124.262C388.082 124.227 387.095 124.166 386.164 124.628C385.784 124.82 385.022 124.794 384.43 124.768C377.789 124.524 371.163 124.245 364.522 124.027C361.942 123.939 359.333 124.009 356.753 124C356.048 124 355.371 124.027 354.737 124.471C355.202 124.602 355.597 124.803 356.034 124.829C358.262 124.977 360.503 125.099 362.745 125.204C365.579 125.343 368.413 125.448 371.219 125.57C371.543 125.901 371.797 126.163 372.079 126.451C373.856 126.381 375.449 126.939 377.225 126.983C379.115 127.035 380.99 127.262 382.879 127.418C384.67 127.567 386.475 127.724 388.223 127.872C388.871 128.465 389.492 129.014 390.183 129.633C389.506 129.781 388.491 129.808 388.152 130.121C387.264 130.906 386.094 130.732 384.938 130.714C381.653 130.68 378.41 130.453 375.181 130.095C374.504 130.017 373.799 130.043 373.108 130.026C371.12 129.973 369.146 129.947 367.158 129.877C362.759 129.712 358.374 129.529 353.975 129.354C352.763 129.302 351.564 129.258 350.352 129.223C349.661 129.206 348.942 129.11 348.293 129.206C344.966 129.712 341.596 129.354 338.255 129.406C334.025 129.468 329.795 129.406 325.579 129.406C325.1 129.406 324.606 129.546 324.127 129.651C323.648 129.764 323.211 129.965 322.731 130.034C322.026 130.121 321.265 130.148 321.42 129.415C320.165 129.476 319.051 129.311 318.135 129.904C317.909 130.043 317.317 130.026 316.908 129.982C314.37 129.703 311.818 129.869 309.266 129.799C305.121 129.694 301.004 130.13 296.859 129.991C295.999 129.965 295.139 130.034 294.279 130.052C293.672 130.06 292.995 130.165 292.474 130.034C290.641 129.59 288.949 129.869 287.201 130.226C286.397 130.392 285.509 130.418 284.649 130.444C280.01 130.592 275.371 130.854 270.718 130.671C268.857 131.02 267.01 130.758 265.149 130.688C263.697 130.636 262.231 130.81 260.764 130.636C260.454 130.601 260.045 130.636 259.763 130.732C258.508 131.124 257.268 131.028 255.985 130.81C255.576 130.741 255.054 130.592 254.73 130.688C252.911 131.22 251.007 130.828 249.16 130.906C246.764 131.002 244.338 130.863 241.927 130.828C237.698 130.758 233.468 130.688 229.252 130.618C225.544 130.549 221.836 130.505 218.128 130.401C216.252 130.348 214.405 130.121 212.488 130.305C211.148 130.435 209.738 130.27 208.371 130.209C205.537 130.078 202.703 129.903 199.869 129.79C197.5 129.694 195.132 129.398 192.735 129.581C192.157 129.624 191.395 129.651 190.958 129.468C189.774 128.971 188.533 129.049 187.25 129.049C186.503 129.049 185.727 128.753 184.994 128.796C182.357 128.962 179.932 128.256 177.352 128.203C175.97 128.177 174.589 128.072 173.221 128.116C171.98 128.16 170.81 128.055 169.682 127.759C167.497 127.183 165.156 127.026 162.844 127.061C160.87 127.087 159.136 126.721 157.373 126.329C156.809 126.206 156.302 125.98 155.766 125.814C154.835 125.529 153.783 125.529 152.608 125.814C150.704 125.335 149.915 124.253 149.167 123.181C148.984 122.919 149.125 122.562 149.153 122.257C149.182 121.838 149.393 121.428 148.942 121.018C148.815 120.905 148.928 120.6 149.097 120.46C149.379 120.225 149.365 120.024 149.351 119.737C149.308 118.682 150.126 118.237 151.875 118.254C152.269 118.254 152.664 118.228 153.031 118.22C153.242 117.644 152.551 117.365 152.298 116.824C152.65 116.362 153.087 115.796 153.538 115.22C152.946 114.374 152.354 113.511 151.748 112.665C152.424 111.654 152.65 110.555 154.13 109.901C153.576 108.605 152.8 107.751 151.804 107.338C152.34 107.059 152.847 106.788 153.468 106.475C153.158 106.204 152.833 105.934 152.424 105.568C153.454 105.228 154.412 104.905 155.343 104.6C155.272 104.242 155.16 103.946 155.188 103.658C155.23 103.353 155.428 103.057 155.569 102.708C153.905 102.089 151.86 102.019 150.408 100.929C149.872 99.9351 150.028 98.7667 150.648 97.5809C150.817 97.2582 150.916 96.9792 151.409 96.8136C151.55 96.77 151.649 96.674 151.762 96.5869C152.114 96.3166 151.184 95.9591 151.86 95.7498C152.41 95.5754 152.283 95.3313 152.213 95.0871C152.157 94.8779 152.044 94.6773 151.889 94.4855C151.593 94.128 151.494 93.8054 151.917 93.4479C152.481 92.9683 152.213 92.3928 152.03 91.9046C151.917 91.5907 151.311 91.3465 150.873 91.0239C151.085 89.2016 151.311 87.3182 151.536 85.3476C150.873 85.1209 150.225 84.8942 149.548 84.6675C149.633 84.467 149.619 84.249 149.774 84.1879C150.479 83.9002 151.24 83.6561 152.072 83.3596C152.312 82.9411 151.593 82.6795 151.325 82.2261C151.593 82.0343 151.973 81.825 152.227 81.5721C153.045 80.7961 152.946 80.5607 151.536 79.8195C151.832 79.5841 152.072 79.1917 152.439 79.1394C153.552 78.9912 153.256 78.4157 153.552 77.971C153.017 77.5351 152.453 77.0729 151.79 76.5323C152.368 75.8522 152.382 75.0762 152.326 74.274C152.269 73.3759 152.326 72.4778 152.805 71.5885C153.172 70.8996 153.143 70.1411 153.327 69.2342C153.651 69.0947 154.201 68.8593 154.793 68.5977C154.751 68.1966 154.709 67.7868 154.652 67.3509C154.864 67.2898 155.103 67.1765 155.329 67.1765C157.74 67.2288 160.151 67.3073 162.562 67.377C163.069 67.3945 163.605 67.5165 164.085 67.4468C166.989 67.0195 169.795 67.7432 172.685 67.5078C172.685 67.6124 172.685 67.7258 172.685 67.8304H168.907C170.725 68.2402 172.417 68.8767 174.419 68.7285C174.716 68.7024 175.026 68.7983 175.336 68.8244C175.928 68.868 176.52 68.9465 177.098 68.9291C177.366 68.9291 177.747 68.7547 177.86 68.5977C178.128 68.2577 177.55 68.1705 177.197 68.0048C177.648 67.7258 178.226 67.4729 177.916 66.9149C177.578 66.8626 177.183 66.8103 176.732 66.7405C176.873 66.6882 176.986 66.6184 177.098 66.6184C178.043 66.6184 179.002 66.6359 179.946 66.6184C180.807 66.601 181.723 66.6446 182.513 66.4876C184.19 66.1563 185.911 66.1825 187.617 66.0778C190.042 65.9209 192.439 66.0342 194.85 66.1302C201.053 66.3917 207.257 66.6359 213.461 66.88C219.312 67.1067 225.177 67.3421 231.029 67.534C238.699 67.7781 246.383 67.9699 254.053 68.1792C258.452 68.3013 262.851 68.3972 267.25 68.528C269.661 68.5977 272.086 68.6413 274.483 68.7983C276.09 68.9029 277.669 68.9465 279.291 68.9116C280.377 68.8855 281.462 69.1296 282.562 69.1558C283.676 69.1906 284.804 69.0773 285.918 69.086C286.51 69.086 287.116 69.1732 287.68 69.2778C289.019 69.5307 290.387 69.5394 291.741 69.4086C293.39 69.243 295.012 69.2778 296.633 69.4173C297.465 69.4871 298.255 69.7225 299.298 69.9318C299.848 69.6441 300.637 69.4261 301.667 69.4697C305.784 69.6789 309.915 69.8272 314.046 69.9928C316.711 70.0975 319.39 70.2021 322.054 70.2893C326.2 70.4288 330.331 70.5509 334.476 70.6817C338.79 70.8124 343.091 70.9432 347.405 71.074C351.536 71.1961 355.681 71.3182 359.813 71.4228C363.436 71.51 367.046 71.5362 370.669 71.6495C372.812 71.7193 374.955 71.8849 377.084 72.0157C379.735 72.1814 382.4 72.3558 385.05 72.5389C386.319 72.6261 387.603 72.7481 388.829 72.8528C389.097 73.4195 388.434 73.5852 388.096 73.8642C387.476 74.3787 387.602 74.7013 388.575 74.9803C389.041 75.1111 389.534 75.207 390.14 75.3378V77.91C391.649 78.2152 392.269 79.1307 393.538 79.5667C393.75 79.6364 394.046 79.7934 394.018 79.898C393.863 80.8048 395.117 81.1623 395.837 81.7378C396.09 81.9471 396.358 82.1476 396.668 82.383C396.104 82.6359 395.625 82.8539 395.061 83.1067C395.033 83.4381 395.005 83.8043 394.962 84.2402C392.847 84.5716 390.718 84.9029 388.604 85.2255C388.942 86.3939 389.083 86.516 390.549 86.6817C393.087 86.9607 395.639 87.2223 398.05 87.4751C398.685 87.9373 399.136 88.4168 399.798 88.7133C400.362 88.9661 401.166 89.0185 401.885 89.1667C401.73 89.3498 401.688 89.4893 401.575 89.5067C400.926 89.6288 400.207 89.655 399.855 90.1171C399.432 90.6838 399.432 91.2855 399.77 91.8348C400.066 92.3144 400.503 92.9073 401.152 93.1166C402.379 93.5089 402.491 94.1716 402.788 94.8168C402.83 94.9215 402.83 95.0261 402.858 95.1482C401.801 96.0201 401.871 97.1013 401.589 98.1127C401.519 98.1389 401.434 98.1912 401.364 98.1912C399.813 98.1476 398.248 97.9819 396.725 98.0953C395.188 98.1999 393.693 98.4354 392.114 98.2958C391.621 98.2522 391.099 98.3656 390.577 98.383C389.717 98.4092 388.857 98.4528 387.997 98.4354C385.149 98.383 382.315 98.3133 379.411 98.4354C379.707 98.4877 379.989 98.5574 380.299 98.5923C381.441 98.7144 381.455 98.7144 381.963 99.5427C382.781 99.6037 383.641 99.6735 384.543 99.7433C384.825 100.066 385.121 100.371 385.361 100.641C389.562 101.034 393.651 101.426 397.81 101.818C398.107 102.22 398.374 102.594 398.642 102.969L398.685 103.022ZM174.56 67.9525C174.659 67.9961 174.758 68.0571 174.871 68.0833C174.913 68.092 174.983 68.031 175.054 68.0048C174.955 67.9612 174.842 67.9089 174.744 67.8653C174.687 67.8915 174.617 67.9176 174.56 67.9525ZM147.504 118.952L147.461 119.039L147.645 119.013L147.504 118.952Z" fill="white"/>
<path d="M204.931 109.539V103.281L200.131 103.81V98.6542H211.114V115.047L205.622 113.769C203.873 114.431 202.043 115.047 199.358 115.047C192.849 115.047 185.771 110.156 185.771 99.5356C185.771 88.9153 193.338 83.4508 201.758 83.4508C204.565 83.4508 207.453 83.8034 210.748 85.2576L208.795 90.2814C206.314 89.2237 204.361 89.0475 202.816 89.0475C197.853 89.0475 193.134 91.7356 193.134 99.3593C193.134 106.102 196.836 110.024 201.595 110.024C202.49 110.024 203.995 109.847 204.931 109.539Z" fill="#AD005E"/>
<path d="M215.558 114.475V83.4508L221.863 84.861C223.815 83.9356 225.768 83.4508 227.68 83.4508C234.839 83.4508 238.378 87.2847 238.378 92.7492C238.378 96.6712 236.303 100.02 231.992 101.827L240.33 114.475H231.422L225.483 102.488H222.758V114.475H215.558ZM222.758 97.7729H225.239C229.144 97.7729 230.975 96.0983 230.975 93.0136C230.975 90.3695 229.185 88.6508 225.89 88.6508C224.669 88.6508 223.286 88.8271 222.758 88.9593V97.7729Z" fill="#AD005E"/>
<path d="M241.082 114.475L252.35 84.0678H258.858L269.963 114.475H262.194L259.916 107.556H250.723L248.485 114.475H241.082ZM252.024 103.546L258.33 102.797L255.441 92.4407L252.024 103.546Z" fill="#AD005E"/>
<path d="M275.755 114.475V89.7966H267.741V84.0678H291.009V89.7966H282.955V114.475H275.755Z" fill="#AD005E"/>
<path d="M300.622 114.475V89.7966H292.609V84.0678H315.876V89.7966H307.822V114.475H300.622Z" fill="#AD005E"/>
<path d="M319 114.475V84.0678H339.38V89.7085H326.2V96.7153L336.004 95.3932V101.431H326.2V108.834H339.706V114.475H319Z" fill="#AD005E"/>
<path d="M341.839 114.475V111.302L357.541 89.4441L342.774 90.1492V84.0678H365.717V88.6949L351.032 109.098L365.88 107.556V114.475H341.839Z" fill="#AD005E"/>
<path d="M175.51 165L173.91 163.24C172.19 164.44 169.43 165.52 166.15 165.52C160.23 165.52 157.27 161.72 157.27 157.92C157.27 155 159.39 152.2 162.39 151.04C160.47 148.84 159.87 146.88 159.87 145.32C159.87 140.68 164.15 138.08 168.55 138.08C171.71 138.08 174.11 138.96 176.47 140.88L173.91 144.88C172.15 143.68 170.83 143 169.11 143C167.51 143 166.47 144.2 166.47 145.6C166.47 146.4 166.83 147.32 167.59 148.08L174.39 155.2C175.03 153.96 175.55 152.48 175.83 150.96L180.31 151.92C179.71 154.68 178.95 156.52 177.55 158.72L183.43 165H175.51ZM170.71 159.92L165.19 154C164.23 154.72 163.71 155.8 163.71 157.36C163.71 159.04 165.03 160.96 167.51 160.96C168.79 160.96 169.99 160.48 170.71 159.92Z" fill="#FFD700"/>
<path d="M192.37 161V150.92H188.824V148.58H199.12V150.92H195.556V161H192.37ZM200.502 161V148.58H209.52V150.884H203.688V153.746L208.026 153.206V155.672H203.688V158.696H209.664V161H200.502ZM211.418 161V148.58H213.902L220.148 156.32V148.904L223.316 148.328V161H220.544L214.604 153.638V161H211.418ZM228.247 161V150.92H224.701V148.58H234.997V150.92H231.433V161H228.247ZM236.379 161V148.58H245.397V150.884H239.565V153.746L243.903 153.206V155.672H239.565V158.696H245.541V161H236.379ZM246.485 161V159.704L253.433 150.776L246.899 151.064V148.58H257.051V150.47L250.553 158.804L257.123 158.174V161H246.485ZM265.925 161L261.083 148.58H264.431L267.491 157.526L270.425 148.58H273.737L268.841 161H265.925ZM280.373 161.234C276.467 161.234 273.947 158.426 273.947 154.772C273.947 151.118 276.449 148.328 280.373 148.328C284.315 148.328 286.799 151.1 286.799 154.772C286.799 158.462 284.279 161.234 280.373 161.234ZM280.373 158.84C282.335 158.84 283.541 157.418 283.541 154.772C283.541 152.108 282.299 150.704 280.373 150.704C278.411 150.704 277.205 152.108 277.205 154.772C277.205 157.364 278.411 158.84 280.373 158.84ZM290.948 161V150.92H287.402V148.58H297.698V150.92H294.134V161H290.948ZM299.08 161V148.328L301.87 148.904C302.734 148.526 303.598 148.328 304.444 148.328C307.612 148.328 309.178 149.894 309.178 152.126C309.178 153.728 308.26 155.096 306.352 155.834L310.042 161H306.1L303.472 156.104H302.266V161H299.08ZM302.266 154.178H303.364C305.092 154.178 305.902 153.494 305.902 152.234C305.902 151.154 305.11 150.452 303.652 150.452C303.112 150.452 302.5 150.524 302.266 150.578V154.178ZM311.297 161V148.58H320.315V150.884H314.483V153.746L318.821 153.206V155.672H314.483V158.696H320.459V161H311.297ZM335.565 158.282L336.195 160.46C335.097 160.982 333.729 161.234 332.235 161.234C327.519 161.234 325.521 158.336 325.521 154.862C325.521 151.442 327.573 148.328 331.983 148.328C333.873 148.328 334.755 148.598 335.961 149.156L335.151 151.37C334.215 150.92 333.531 150.74 332.487 150.74C329.931 150.74 328.779 152.63 328.779 154.862C328.779 157.076 329.931 158.912 332.667 158.912C333.711 158.912 334.629 158.696 335.565 158.282ZM337.875 161V148.58H341.061V153.764L346.389 153.332V148.904L349.575 148.328V161H346.389V155.726H341.061V161H337.875ZM350.892 161L355.878 148.58H358.758L363.672 161H360.234L359.226 158.174H355.158L354.168 161H350.892ZM355.734 156.536L358.524 156.23L357.246 152L355.734 156.536ZM364.98 161V148.58H367.464L373.71 156.32V148.904L376.878 148.328V161H374.106L368.166 153.638V161H364.98ZM388.721 158.282L389.351 160.46C388.253 160.982 386.885 161.234 385.391 161.234C380.675 161.234 378.677 158.336 378.677 154.862C378.677 151.442 380.729 148.328 385.139 148.328C387.029 148.328 387.911 148.598 389.117 149.156L388.307 151.37C387.371 150.92 386.687 150.74 385.643 150.74C383.087 150.74 381.935 152.63 381.935 154.862C381.935 157.076 383.087 158.912 385.823 158.912C386.867 158.912 387.785 158.696 388.721 158.282ZM391.031 161V148.58H400.049V150.884H394.217V153.746L398.555 153.206V155.672H394.217V158.696H400.193V161H391.031Z" fill="white"/>
</svg>
